<svg width="18" height="21" viewBox="0 0 18 21" fill="none" xmlns="http://www.w3.org/2000/svg">
<g clipPath="url(#clip0_946_5171)">
<path d="M8.75 6.80762C11.2109 6.80762 13.2422 8.83887 13.2422 11.2998C13.2422 13.7998 11.2109 15.792 8.75 15.792C6.25 15.792 4.25781 13.7998 4.25781 11.2998C4.25781 8.83887 6.25 6.80762 8.75 6.80762ZM8.75 14.2295C10.3516 14.2295 11.6406 12.9404 11.6406 11.2998C11.6406 9.69824 10.3516 8.40918 8.75 8.40918C7.10938 8.40918 5.82031 9.69824 5.82031 11.2998C5.82031 12.9404 7.14844 14.2295 8.75 14.2295ZM14.4531 6.65137C14.4531 6.06543 13.9844 5.59668 13.3984 5.59668C12.8125 5.59668 12.3438 6.06543 12.3438 6.65137C12.3438 7.2373 12.8125 7.70605 13.3984 7.70605C13.9844 7.70605 14.4531 7.2373 14.4531 6.65137ZM17.4219 7.70605C17.5 9.15137 17.5 13.4873 17.4219 14.9326C17.3438 16.3389 17.0312 17.5498 16.0156 18.6045C15 19.6201 13.75 19.9326 12.3438 20.0107C10.8984 20.0889 6.5625 20.0889 5.11719 20.0107C3.71094 19.9326 2.5 19.6201 1.44531 18.6045C0.429688 17.5498 0.117188 16.3389 0.0390625 14.9326C-0.0390625 13.4873 -0.0390625 9.15137 0.0390625 7.70605C0.117188 6.2998 0.429688 5.0498 1.44531 4.03418C2.5 3.01855 3.71094 2.70605 5.11719 2.62793C6.5625 2.5498 10.8984 2.5498 12.3438 2.62793C13.75 2.70605 15 3.01855 16.0156 4.03418C17.0312 5.0498 17.3438 6.2998 17.4219 7.70605ZM15.5469 16.4561C16.0156 15.3232 15.8984 12.5889 15.8984 11.2998C15.8984 10.0498 16.0156 7.31543 15.5469 6.14355C15.2344 5.40137 14.6484 4.77637 13.9062 4.50293C12.7344 4.03418 10 4.15137 8.75 4.15137C7.46094 4.15137 4.72656 4.03418 3.59375 4.50293C2.8125 4.81543 2.22656 5.40137 1.91406 6.14355C1.44531 7.31543 1.5625 10.0498 1.5625 11.2998C1.5625 12.5889 1.44531 15.3232 1.91406 16.4561C2.22656 17.2373 2.8125 17.8232 3.59375 18.1357C4.72656 18.6045 7.46094 18.4873 8.75 18.4873C10 18.4873 12.7344 18.6045 13.9062 18.1357C14.6484 17.8232 15.2734 17.2373 15.5469 16.4561Z" fill="#E6CFB7"/>
</g>
<defs>
<clipPath id="clip0_946_5171">
<rect width="18" height="20" fill="white" transform="translate(0 0.799805)"/>
</clipPath>
</defs>
</svg>
