<svg width="15" height="21" viewBox="0 0 15 21" fill="none" xmlns="http://www.w3.org/2000/svg">
<path d="M6.7852 19.5312C4.75395 16.9922 0.2227 10.9375 0.2227 7.5C0.2227 3.35938 3.54301 0 7.7227 0C11.8633 0 15.2227 3.35938 15.2227 7.5C15.2227 10.9375 10.6524 16.9922 8.62114 19.5312C8.15239 20.1172 7.25395 20.1172 6.7852 19.5312ZM7.7227 10C9.08989 10 10.2227 8.90625 10.2227 7.5C10.2227 6.13281 9.08989 5 7.7227 5C6.31645 5 5.2227 6.13281 5.2227 7.5C5.2227 8.90625 6.31645 10 7.7227 10Z" fill="#E6CFB7"/>
</svg>
