<svg width="20" height="27" viewBox="0 0 20 27" fill="none" xmlns="http://www.w3.org/2000/svg">
<g clipPath="url(#clip0_946_5213)">
<path d="M20.2579 19.1172L19.3204 23.0625C19.2032 23.6484 18.7344 24.0391 18.1485 24.0391C8.30475 24 0.296933 15.9922 0.296933 6.14844C0.296933 5.5625 0.648496 5.09375 1.23443 4.97656L5.17975 4.03906C5.72662 3.92188 6.31256 4.23438 6.54693 4.74219L8.38287 9C8.57818 9.50781 8.461 10.0938 8.03131 10.4062L5.92193 12.125C7.25006 14.8203 9.43756 17.0078 12.1719 18.3359L13.8907 16.2266C14.2032 15.8359 14.7891 15.6797 15.2969 15.875L19.5547 17.7109C20.0626 17.9844 20.3751 18.5703 20.2579 19.1172Z" fill="#E6CFB7"/>
</g>
<defs>
<clipPath id="clip0_946_5213">
<rect width="20" height="26" fill="white" transform="translate(0 0.5)"/>
</clipPath>
</defs>
</svg>
