<svg width="20" height="27" viewBox="0 0 20 27" fill="none" xmlns="http://www.w3.org/2000/svg">
<g clipPath="url(#clip0_946_5218)">
<path d="M10.2969 17.75C9.63287 17.75 8.96881 17.5547 8.42193 17.125L0.296933 10.7969V19.625C0.296933 20.6797 1.11725 21.5 2.17193 21.5H18.4219C19.4376 21.5 20.2969 20.6797 20.2969 19.625V10.7969L12.1329 17.125C11.586 17.5547 10.9219 17.75 10.2969 17.75ZM0.921933 9.70312L9.20318 16.1484C9.82818 16.6172 10.7266 16.6172 11.3516 16.1484L19.6329 9.70312C20.0235 9.39062 20.2969 8.88281 20.2969 8.375C20.2969 7.35938 19.4376 6.5 18.4219 6.5H2.17193C1.11725 6.5 0.296933 7.35938 0.296933 8.375C0.296933 8.88281 0.531308 9.39062 0.921933 9.70312Z" fill="#E6CFB7"/>
</g>
<defs>
<clipPath id="clip0_946_5218">
<rect width="20" height="26" fill="white" transform="translate(0 0.5)"/>
</clipPath>
</defs>
</svg>
