<svg width="18" height="21" viewBox="0 0 18 21" fill="none" xmlns="http://www.w3.org/2000/svg">
<g clipPath="url(#clip0_946_5175)">
<path d="M14.8438 5.12793C16.4844 6.76855 17.5 8.91699 17.5 11.2607C17.5 16.0264 13.5156 19.9326 8.71094 19.9326C7.26562 19.9326 5.85938 19.542 4.57031 18.8779L0 20.0498L1.21094 15.5576C0.46875 14.2686 0.0390625 12.7842 0.0390625 11.2217C0.0390625 6.45605 3.94531 2.5498 8.71094 2.5498C11.0547 2.5498 13.2422 3.4873 14.8438 5.12793ZM8.71094 18.4482C12.6953 18.4482 16.0156 15.2061 16.0156 11.2607C16.0156 9.30762 15.1953 7.51074 13.8281 6.14355C12.4609 4.77637 10.6641 4.03418 8.75 4.03418C4.76562 4.03418 1.52344 7.27637 1.52344 11.2217C1.52344 12.5889 1.91406 13.917 2.61719 15.0889L2.8125 15.3623L2.07031 18.0186L4.80469 17.2764L5.03906 17.4326C6.17188 18.0967 7.42188 18.4482 8.71094 18.4482ZM12.6953 13.0576C12.8906 13.1748 13.0469 13.2139 13.0859 13.3311C13.1641 13.4092 13.1641 13.8389 12.9688 14.3467C12.7734 14.8545 11.9141 15.3232 11.5234 15.3623C10.8203 15.4795 10.2734 15.4404 8.90625 14.8154C6.71875 13.8779 5.3125 11.6904 5.19531 11.5732C5.07812 11.417 4.33594 10.4014 4.33594 9.30762C4.33594 8.25293 4.88281 7.74512 5.07812 7.51074C5.27344 7.27637 5.50781 7.2373 5.66406 7.2373C5.78125 7.2373 5.9375 7.2373 6.05469 7.2373C6.21094 7.2373 6.36719 7.19824 6.5625 7.62793C6.71875 8.05762 7.1875 9.1123 7.22656 9.22949C7.26562 9.34668 7.30469 9.46387 7.22656 9.62012C6.83594 10.4404 6.36719 10.4014 6.60156 10.792C7.46094 12.2373 8.28125 12.7451 9.57031 13.3701C9.76562 13.4873 9.88281 13.4482 10.0391 13.3311C10.1562 13.1748 10.5859 12.667 10.7031 12.4717C10.8594 12.2373 11.0156 12.2764 11.2109 12.3545C11.4062 12.4326 12.4609 12.9404 12.6953 13.0576Z" fill="#E6CFB7"/>
</g>
<defs>
<clipPath id="clip0_946_5175">
<rect width="18" height="20" fill="white" transform="translate(0 0.799805)"/>
</clipPath>
</defs>
</svg>
