<svg width="180px" height="181px" viewBox="0 0 180 181" fill="none" xmlns="http://www.w3.org/2000/svg" transform="rotate(0) scale(1, 1)">
<path d="M125.55 91.527C126.817 94.7022 127.476 98.0862 127.501 101.503C127.502 104.95 126.824 108.364 125.505 111.55C124.186 114.735 122.253 117.629 119.815 120.067C117.377 122.505 114.483 124.439 111.297 125.757C108.112 127.076 104.698 127.755 101.25 127.754C97.3503 127.735 93.5048 126.837 90.0002 125.126C86.4957 126.837 82.6502 127.735 78.7502 127.754C75.3026 127.755 71.8886 127.076 68.7032 125.757C65.5179 124.439 62.6236 122.505 60.1857 120.067C57.7479 117.629 55.8143 114.735 54.4954 111.55C53.1765 108.364 52.4981 104.95 52.499 101.503C52.5242 98.0826 53.183 94.7022 54.4502 91.5306C51.0285 88.6948 48.3876 85.0322 46.7777 80.8899C45.1677 76.7477 44.6422 72.263 45.2508 67.8607C45.8594 63.4585 47.582 59.2846 50.2553 55.7345C52.9287 52.1844 56.4643 49.3757 60.527 47.5746C61.8272 40.7088 65.4833 34.5123 70.8645 30.0545C76.2457 25.5966 83.0142 23.1572 90.002 23.1572C96.9898 23.1572 103.758 25.5966 109.14 30.0545C114.521 34.5123 118.177 40.7088 119.477 47.5746C123.54 49.3761 127.075 52.185 129.748 55.7353C132.421 59.2856 134.143 63.4596 134.751 67.8618C135.359 72.264 134.834 76.7486 133.223 80.8906C131.613 85.0327 128.972 88.6914 125.55 91.527Z" stroke="#e6cfb7" stroke-width="9" stroke-linecap="round" stroke-linejoin="round"/>
<path d="M74.998 157.746H105M89.9992 157.746V82.7471" stroke="#e6cfb7" stroke-width="9" stroke-linecap="round" stroke-linejoin="round"/>
</svg>