<svg width="590" height="232" viewBox="0 0 590 232" fill="none" xmlns="http://www.w3.org/2000/svg">
<style>
    .bird1 {
        transform-origin: center center;
        animation: bird-flight 2s infinite alternate;
    }
    .bird2 {
        transform-origin: center center;
        animation: bird-flight 2.5s infinite alternate;
    }
    .bird3 {
        transform-origin: center center;
        animation: bird-flight 3s infinite alternate;
    }

    @keyframes bird-flight {
        0% {
            transform: translateY(0);
        }
        100% {
            transform: translateY(-20px);
        }
    }
</style>
<path class="bird1" d="M15.5 91.5C16.3 93.1 15.1667 92.8334 14.5 92.5001C11 92 8 92.5 5.5 93.0001C6.33333 93.6668 8.7 95.4 11.5 97C14.3 98.6 19 97.6667 21 97L27 98.5C32 98 28.5 93.5 24.5 94.5C23 94.5 22.6667 93.8333 23 93.5C26 91 23 85.5 21 82C19.4 79.2 22.3333 77.5 24 77C12 77 14.5 89.5 15.5 91.5Z" fill="#193048"/>
<path class="bird2" d="M11 152.5C13.5 151.5 12.8333 153.5 12 154C8.8 159.6 15.3333 171 19 176C24.5 168 21.5 156.5 21 154.5C20.5 152.5 22 153 24.5 152.5C27 152 24.5 148.5 22 149C19.5 149.5 18 148 13 146.5C8 145 4 148 3 149C2.2 149.8 0.666667 149.667 0 149.5C2.5 153 7.5 152.5 11 152.5Z" fill="#193048"/>
<path class="bird3" d="M48.9999 127C45.3999 126.6 41.4999 128.833 39.9999 130C39.1999 130.8 43.5 130.5 45.4999 131C50.9999 132 48.9999 136 53.4999 140C57 142 58.5 143.5 58.4999 142C58.4999 140.5 57.4999 133 59.4999 135C60.2999 136.2 63.1665 136.167 64.4999 136C66.4999 135 61.9999 132 59.4999 130.5C57.4999 129.3 57.9999 127 58.4999 126C59.1665 125.5 60.3999 122.9 59.9999 116.5C59.4999 108.5 61.9999 101 62.9999 100C63.7999 99.2 62.9999 99 62.4999 99C57.4999 99 48.9999 113 49.9999 119.5C50.9999 126 51.4999 127 48.9999 127Z" fill="#193048"/>
<path class="bird1" d="M113.5 162.5C115.333 163.167 118.9 165 118.5 167C118.1 169 119 171.167 119.5 172C118.667 172.167 116.7 172.7 115.5 173.5C114.3 174.3 112.333 174.5 111.5 174.5C111.833 175 112.7 176 113.5 176C114.3 176 115.833 176.667 116.5 177C120.5 180 124 179 126 178C127.6 177.2 130 177.667 131 178C133.4 175.6 129.667 174.333 127.5 174C125 173 126.5 166.5 122 163.5C119.6 161.9 115.333 162.167 113.5 162.5Z" fill="#193048"/>
<path class="bird2" d="M159 116C155.4 116 150.167 119 148 120.5L152 121C152 121.8 153.667 123 154.5 123.5C155.667 123.833 157.9 125.6 157.5 130C157.1 134.4 159.667 137.833 161 139C161 143 162 144.667 162.5 145C165.5 142 166 131.5 165 126C164 120.5 170 122 170.5 122C175.5 123.5 175.5 118 171.5 118.5C168.3 118.9 166.5 116.333 166 115C162 110 151.5 111 154.5 112C156.9 112.8 158.5 115 159 116Z" fill="#193048"/>
<path class="bird3" d="M229.5 167C226.7 167.4 225 168.5 224.5 169C225.5 168 229 170 231.5 171C234 172 233 178.5 236.5 182C240 185.5 241 193 241.5 192C242 191 242.5 184.5 241 178.5C239.8 173.7 242.167 172.167 243.5 172C247.1 170.4 245.333 169.333 244 169C243.5 169.5 241.4 169.4 237 165C231.5 159.5 222.5 158.5 221.5 159.5C220.7 160.3 224.833 162.5 227 163.5C229 164.5 232.3 166.6 229.5 167Z" fill="#193048"/>
<path class="bird1" d="M409 147C407 147.4 404.167 148.833 403 149.5C406 150 410.5 152.5 411 153C415 152.5 414 154.5 414.5 154.5C417.7 160.1 424.833 162.167 428 162.5C420.4 157.3 420.167 153.333 421 152C425 149 421 147.5 417 147.5C415.4 147.5 415.333 146.5 415.5 146C414.7 140.4 411.833 132.333 410.5 129C409 125.5 408.5 121 409 117C408.6 112.2 406.167 119.667 405 124C403.5 133.5 408.5 139.5 409 147Z" fill="#193048"/>
<path class="bird2" d="M461 49.4998C462.6 54.6998 459.666 56.6665 458 56.9998C454.8 57.3997 456 58.4999 457 59L461 59.5C464 62.0002 466.5 63 467.5 62C468.5 61 470.5 61 472 61C473.5 61 479.5 61.5 474 59C469.6 57 468.833 54.5 469 53.5C468.666 51.3333 467.9 46.8 467.5 46C467 45 465.5 37.9998 467 33.4998C468.2 29.8998 467.833 29.3332 467.5 29.4998C457.5 41.9998 459 42.9998 461 49.4998Z" fill="#193048"/>
<path class="bird3" d="M482.5 76.5C483.7 80.1 482.334 81.3333 481.5 81.5C480 81.5 479 82.5 482.5 84C485.3 85.2 491.667 84.1667 494.5 83.5L491.5 82C493 82 499 76 500 73C501 70 496 76 495.5 76C490.5 79 489.5 76.5 489 75C488.5 73.5 486 68 485 67.5C484.2 67.1 483.334 61.6667 483 59C476.5 67 481 72 482.5 76.5Z" fill="#193048"/>
<path class="bird1" d="M549 59.4998C550.2 63.0998 545.167 65.6665 542.5 66.4998C541.5 67.4997 543.5 67.5 546 68C548.5 68.5 553.5 70.5 555 70C556.2 69.6 561.5 69.1667 564 69C564.5 68 562 66 561.5 66C561 66 556 65 557 64C558 63 557 58 557 57C557 56 555 51.5 557 48.4998C559.8 44.4998 557.5 45.1665 556 45.9998C546 51.9998 547.5 54.9998 549 59.4998Z" fill="#193048"/>
</svg>
