<svg width="181" height="174" viewBox="0 0 181 174" fill="none" xmlns="http://www.w3.org/2000/svg">
<path d="M68.1692 173.793C64.6895 173.793 62.1803 173.358 61.988 173.323C60.2132 173.009 59.0068 171.354 59.2514 169.576C62.5388 145.548 59.706 137.583 58.6394 135.553C37.6304 131.293 27.8288 81.3427 25.5906 68.0315C23.2475 68.5803 21.2891 68.9463 19.969 69.0334C10.9288 69.6433 4.94888 67.5087 2.17736 62.6731C-2.76228 54.0563 5.42091 40.8044 7.33567 37.9109L10.2122 28.9804C2.3873 24.8943 1.65296 15.624 4.39807 8.23565C4.95761 6.74579 6.63624 2.20657 10.3082 3.06908C11.2874 3.2956 13.5343 4.254 13.1233 8.13974C12.7474 11.7294 16.8915 14.6568 18.4914 15.6414C21.0968 13.7507 23.9382 12.618 26.9982 12.2522C34.1324 11.3984 40.1736 15.1098 42.4205 16.7305C43.9855 16.4429 47.6137 13.8117 49.7995 3.37398C50.0443 2.2239 50.8749 1.28295 51.9852 0.899539C53.1043 0.516195 54.3371 0.742714 55.2463 1.50071C59.9413 5.43876 65.9387 16.3469 54.984 29.3989C53.7949 30.8191 51.6791 31.0021 50.254 29.8171C48.829 28.6322 48.6454 26.5237 49.8344 25.1036C54.2933 19.7889 54.8703 15.45 54.1883 12.296C52.4047 16.8528 50.0441 20.059 47.1329 21.8625C43.7407 23.9623 40.8643 23.3698 40.3222 23.2304C39.8326 23.1084 39.3779 22.8645 38.9845 22.5421C38.9408 22.5073 33.6863 18.1859 27.7588 18.909C24.3753 19.3272 21.2804 21.3747 18.5525 24.9992L13.5864 40.4119C13.4903 40.7168 13.3417 41.0131 13.158 41.2831C9.8883 46.0489 5.60422 55.1711 8.00846 59.3706C9.7308 62.3766 15.2127 62.6554 19.514 62.3679C22.7139 62.15 32.7857 59.2575 37.0785 58.0203C38.0751 57.7328 38.8707 57.5063 39.369 57.3669C41.1613 56.8789 43.006 57.9245 43.4957 59.7019C43.9854 61.4793 42.9362 63.3263 41.1526 63.8144C40.6805 63.945 39.9111 64.1629 38.9494 64.4417C36.6237 65.1125 34.3157 65.766 32.1212 66.3585C36.0991 90.7371 47.0278 127.8 60.7966 129.116C61.3561 129.168 61.8982 129.36 62.3703 129.682C64.0577 130.832 68.7701 136.078 67.2139 158.321H75.17C75.6945 145.566 77.1808 130.78 81.0801 123C81.1325 122.599 81.2549 122.216 81.456 121.841C95.6545 95.772 80.6429 81.9455 79.996 81.3701C78.6146 80.1416 78.4922 78.0331 79.7074 76.6565C80.9314 75.2799 83.0298 75.1318 84.4286 76.3429C84.6122 76.5084 101.617 91.773 90.3213 118.868C95.7943 121.203 113.28 126.928 129.192 113.371C130.302 112.421 131.902 112.299 133.143 113.066C133.371 113.205 152.745 125.551 149.073 154.755H154.528C154.843 146.757 156.006 136.563 159.599 130.385C156.084 126.02 153.182 117.813 159.074 107.289C159.179 107.106 159.302 106.932 159.424 106.775C159.442 106.644 159.459 106.522 159.494 106.392C167.817 72.8124 163.551 57.8195 158.008 51.1193C157.763 50.8317 157.632 50.6836 157.614 50.6662C157.562 50.6139 157.51 50.5529 157.466 50.4919C157.326 50.3351 157.186 50.187 157.037 50.0389C151.057 43.94 142.944 44.9071 141.3 45.1772C115.588 56.6954 67.8258 46.5538 65.798 46.1095C63.9883 45.7174 62.8343 43.94 63.2277 42.1277C63.6212 40.3242 65.4222 39.1742 67.2233 39.5663C67.7042 39.6708 115.299 49.7687 138.872 38.9215C139.09 38.817 139.317 38.7473 139.553 38.695C140.078 38.573 152.615 35.9331 161.848 45.3515C162.197 45.7087 162.538 46.0747 162.871 46.458C165.913 49.9083 186.459 75.0432 178.992 118.242C178.678 120.063 176.938 121.283 175.11 120.969C173.283 120.656 172.059 118.922 172.374 117.101C175.154 101.017 173.703 87.5744 170.835 77.0847C170.538 85.9456 168.929 96.2526 166.027 107.981C165.904 108.495 165.659 108.948 165.345 109.322C165.292 109.741 165.161 110.15 164.943 110.533C158.744 121.598 165.729 127.148 166.027 127.375C166.779 127.95 167.242 128.804 167.321 129.745C167.399 130.686 167.076 131.609 166.438 132.298C162.766 136.253 161.375 147.902 161.174 157.747C161.183 157.86 161.192 157.973 161.192 158.078C161.192 158.235 161.183 158.374 161.157 158.522C161.122 161.206 161.174 163.741 161.288 165.919C161.34 166.834 161.008 167.731 160.37 168.402C159.74 169.065 158.857 169.448 157.931 169.448H143.147C142.08 169.448 141.083 168.943 140.445 168.089C139.816 167.235 139.623 166.128 139.938 165.118C140.76 162.469 141.381 159.942 141.844 157.547C141.853 157.494 141.861 157.433 141.879 157.372C146.006 135.321 135.776 123.88 131.44 120.135C113.316 133.849 93.6618 127.463 87.4464 124.858C87.4202 124.91 87.3939 124.962 87.3677 125.006C87.2803 125.162 87.1841 125.319 87.0705 125.459C84.6049 129.972 82.4455 144.496 81.8246 160.918C81.8771 161.153 81.9033 161.389 81.9033 161.641C81.9033 161.972 81.8509 162.286 81.7634 162.591C81.6935 164.647 81.6585 166.738 81.641 168.829C81.6323 170.214 80.7668 171.452 79.4641 171.94C75.5822 173.386 71.4557 173.769 68.1857 173.769L68.1692 173.793ZM66.3419 167.05C68.615 167.172 71.8149 167.119 74.9273 166.353C74.936 165.908 74.9448 165.464 74.9448 165.011H66.5691C66.4992 165.682 66.4205 166.361 66.3331 167.05H66.3419ZM147.545 162.78H154.434C154.425 162.362 154.417 161.927 154.417 161.456H147.86C147.755 161.892 147.65 162.336 147.545 162.78ZM9.66925 16.888C9.70422 17.402 9.76542 17.9161 9.87908 18.4301C10.2463 20.1552 11.0506 21.4709 12.3095 22.4206C12.4144 22.0895 12.5718 21.7759 12.7816 21.4883C13.0439 21.1224 13.3062 20.7739 13.5772 20.4341C12.3882 19.589 10.9457 18.3952 9.66925 16.888Z" fill="currentColor"/>
</svg>
