<svg width="61" height="47" viewBox="0 0 61 47" fill="none" xmlns="http://www.w3.org/2000/svg">
<g id="Quote-icon">
<g id="Fill 210">
<mask id="path-1-inside-1_1316_5838" fill="white">
<path fillRule="evenodd" clipRule="evenodd" d="M27.5 0.925781H0.5V23.828H15.944C16.992 35.1021 2.73305 35.458 2.73305 35.458L3.13905 46.7301C24.3167 46.7301 27.0849 28.7781 27.4458 23.828H27.5V22.6051C27.5 22.5875 27.5 22.5755 27.5 22.5755V0.925781Z"/>
</mask>
<path d="M0.5 0.925781V-1.07422H-1.5V0.925781H0.5ZM0.5 23.828H-1.5V25.828H0.5V23.828ZM15.944 23.828L17.9355 23.6428L17.7668 21.828H15.944V23.828ZM2.73305 35.458L2.68315 33.4586L0.661556 33.5091L0.734345 35.53L2.73305 35.458ZM3.13905 46.7301L1.14035 46.8021L1.20979 48.7301H3.13905V46.7301ZM27.4458 23.828V21.828H25.5863L25.4511 23.6825L27.4458 23.828ZM27.5 23.828V25.828H29.5V23.828H27.5ZM27.5 22.6051L25.5 22.5974V22.6051H27.5ZM27.5 22.5755H25.4999L25.5 22.5868L27.5 22.5755ZM27.5 -1.07422H0.5V2.92578H27.5V-1.07422ZM-1.5 0.925781V23.828H2.5V0.925781H-1.5ZM0.5 25.828H15.944V21.828H0.5V25.828ZM13.9526 24.0131C14.1721 26.3743 13.5922 28.0168 12.7102 29.2172C11.7965 30.4608 10.448 31.3761 8.9317 32.0377C7.42079 32.6969 5.84904 33.0577 4.6312 33.2509C4.02812 33.3466 3.52599 33.3991 3.18051 33.4273C3.00809 33.4414 2.87563 33.4495 2.79018 33.4539C2.74749 33.4561 2.71662 33.4574 2.69846 33.458C2.68939 33.4584 2.6835 33.4586 2.68091 33.4587C2.67961 33.4587 2.67914 33.4587 2.67951 33.4587C2.67969 33.4587 2.68009 33.4587 2.68069 33.4587C2.681 33.4587 2.68161 33.4586 2.68176 33.4586C2.68243 33.4586 2.68315 33.4586 2.73305 35.458C2.78295 37.4574 2.78378 37.4573 2.78466 37.4573C2.78503 37.4573 2.78597 37.4573 2.78671 37.4573C2.78818 37.4572 2.78987 37.4572 2.79178 37.4571C2.7956 37.457 2.8003 37.4569 2.80585 37.4567C2.81696 37.4564 2.83151 37.4559 2.84938 37.4552C2.88512 37.4538 2.93419 37.4518 2.99567 37.4486C3.11859 37.4423 3.29145 37.4316 3.50688 37.414C3.93708 37.3788 4.54075 37.3153 5.25808 37.2015C6.68103 36.9757 8.60852 36.5429 10.5314 35.7039C12.4488 34.8672 14.4685 33.5797 15.9337 31.5856C17.4305 29.5485 18.24 26.9187 17.9355 23.6428L13.9526 24.0131ZM0.734345 35.53L1.14035 46.8021L5.13776 46.6581L4.73175 35.386L0.734345 35.53ZM3.13905 48.7301C14.4121 48.7301 21.0186 43.8946 24.7658 38.2402C28.4275 32.715 29.2499 26.5877 29.4405 23.9734L25.4511 23.6825C25.2808 26.0184 24.5386 31.3422 21.4316 36.0305C18.4101 40.5897 13.0436 44.7301 3.13905 44.7301V48.7301ZM27.4458 25.828H27.5V21.828H27.4458V25.828ZM29.5 23.828V22.6051H25.5V23.828H29.5ZM29.5 22.6129C29.5 22.5998 29.5 22.5887 29.5 22.5804C29.5 22.5763 29.5 22.5728 29.5 22.5701C29.5 22.5687 29.5 22.5675 29.5 22.5665C29.4999 22.566 29.4999 22.5656 29.4999 22.5652C29.4999 22.565 29.4999 22.5648 29.4999 22.5646C29.4999 22.5646 29.4999 22.5645 29.4999 22.5644C29.4999 22.5644 29.4999 22.5643 29.4999 22.5643C29.4999 22.5643 29.4999 22.5642 29.4999 22.5642C29.4999 22.5642 29.4999 22.5642 29.4999 22.5642C29.4999 22.5642 29.4999 22.5642 27.5 22.5755C25.5 22.5868 25.5 22.5868 25.5 22.5868C25.5 22.5868 25.5 22.5867 25.5 22.5867C25.5 22.5867 25.5 22.5867 25.5 22.5867C25.5 22.5866 25.5 22.5866 25.5 22.5866C25.5 22.5865 25.5 22.5864 25.5 22.5864C25.5 22.5863 25.5 22.5861 25.5 22.586C25.5 22.5858 25.5 22.5857 25.5 22.5855C25.5 22.5853 25.5 22.5852 25.5 22.5852C25.5 22.5853 25.5 22.5859 25.5 22.587C25.5 22.5892 25.5 22.5929 25.5 22.5974L29.5 22.6129ZM29.5 22.5755V0.925781H25.5V22.5755H29.5Z" fill="#5E6642" mask="url(#path-1-inside-1_1316_5838)"/>
</g>
<g id="Fill 211">
<mask id="path-3-inside-2_1316_5838" fill="white">
<path fillRule="evenodd" clipRule="evenodd" d="M60.5 22.5755V0.925781H33.5V23.828H48.9439C49.992 35.1021 35.733 35.458 35.733 35.458L36.139 46.7301C57.3165 46.7301 60.0851 28.7781 60.4455 23.828H60.5V22.6051C60.5 22.5875 60.5 22.5755 60.5 22.5755Z"/>
</mask>
<path d="M60.5 0.925781H62.5V-1.07422H60.5V0.925781ZM33.5 0.925781V-1.07422H31.5V0.925781H33.5ZM33.5 23.828H31.5V25.828H33.5V23.828ZM48.9439 23.828L50.9354 23.6428L50.7667 21.828H48.9439V23.828ZM35.733 35.458L35.6831 33.4586L33.6615 33.5091L33.7343 35.53L35.733 35.458ZM36.139 46.7301L34.1403 46.8021L34.2098 48.7301H36.139V46.7301ZM60.4455 23.828V21.828H58.5858L58.4508 23.6827L60.4455 23.828ZM60.5 23.828V25.828H62.5V23.828H60.5ZM62.5 22.5755V0.925781H58.5V22.5755H62.5ZM60.5 -1.07422H33.5V2.92578H60.5V-1.07422ZM31.5 0.925781V23.828H35.5V0.925781H31.5ZM33.5 25.828H48.9439V21.828H33.5V25.828ZM46.9525 24.0131C47.172 26.3743 46.5921 28.0168 45.7101 29.2172C44.7965 30.4608 43.4479 31.3761 41.9317 32.0377C40.4208 32.6969 38.849 33.0577 37.6312 33.2509C37.0281 33.3466 36.526 33.3991 36.1805 33.4273C36.0081 33.4414 35.8756 33.4495 35.7902 33.4539C35.7475 33.4561 35.7166 33.4574 35.6984 33.458C35.6894 33.4584 35.6835 33.4586 35.6809 33.4587C35.6796 33.4587 35.6791 33.4587 35.6795 33.4587C35.6797 33.4587 35.6801 33.4587 35.6807 33.4587C35.681 33.4587 35.6816 33.4586 35.6817 33.4586C35.6824 33.4586 35.6831 33.4586 35.733 35.458C35.7829 37.4574 35.7838 37.4573 35.7846 37.4573C35.785 37.4573 35.786 37.4573 35.7867 37.4573C35.7882 37.4572 35.7899 37.4572 35.7918 37.4571C35.7956 37.457 35.8003 37.4569 35.8058 37.4567C35.8169 37.4564 35.8315 37.4559 35.8494 37.4552C35.8851 37.4538 35.9342 37.4518 35.9957 37.4486C36.1186 37.4423 36.2914 37.4316 36.5069 37.414C36.9371 37.3788 37.5407 37.3153 38.2581 37.2015C39.681 36.9757 41.6085 36.5429 43.5313 35.7039C45.4488 34.8672 47.4685 33.5797 48.9336 31.5856C50.4304 29.5484 51.2399 26.9186 50.9354 23.6428L46.9525 24.0131ZM33.7343 35.53L34.1403 46.8021L38.1377 46.6581L37.7317 35.386L33.7343 35.53ZM36.139 48.7301C47.412 48.7301 54.0185 43.8946 57.7658 38.2402C61.4275 32.715 62.2499 26.5877 62.4402 23.9732L58.4508 23.6827C58.2807 26.0184 57.5386 31.3422 54.4315 36.0305C51.4101 40.5897 46.0435 44.7301 36.139 44.7301V48.7301ZM60.4455 25.828H60.5V21.828H60.4455V25.828ZM62.5 23.828V22.6051H58.5V23.828H62.5ZM62.5 22.6051C62.5 22.6051 62.5 22.6051 62.5 22.605C62.5 22.605 62.5 22.605 62.5 22.6049C62.5 22.6049 62.5 22.6049 62.5 22.6048C62.5 22.6048 62.5 22.6048 62.5 22.6047C62.5 22.6047 62.5 22.6047 62.5 22.6046C62.5 22.6046 62.5 22.6046 62.5 22.6045C62.5 22.6045 62.5 22.6045 62.5 22.6044C62.5 22.6044 62.5 22.6044 62.5 22.6043C62.5 22.6043 62.5 22.6042 62.5 22.6042C62.5 22.6042 62.5 22.6041 62.5 22.6041C62.5 22.6041 62.5 22.604 62.5 22.604C62.5 22.604 62.5 22.6039 62.5 22.6039C62.5 22.6039 62.5 22.6038 62.5 22.6038C62.5 22.6038 62.5 22.6037 62.5 22.6037C62.5 22.6037 62.5 22.6036 62.5 22.6036C62.5 22.6036 62.5 22.6035 62.5 22.6035C62.5 22.6035 62.5 22.6034 62.5 22.6034C62.5 22.6034 62.5 22.6033 62.5 22.6033C62.5 22.6033 62.5 22.6032 62.5 22.6032C62.5 22.6032 62.5 22.6031 62.5 22.6031C62.5 22.6031 62.5 22.603 62.5 22.603C62.5 22.603 62.5 22.6029 62.5 22.6029C62.5 22.6029 62.5 22.6028 62.5 22.6028C62.5 22.6028 62.5 22.6027 62.5 22.6027C62.5 22.6027 62.5 22.6026 62.5 22.6026C62.5 22.6026 62.5 22.6025 62.5 22.6025C62.5 22.6025 62.5 22.6024 62.5 22.6024C62.5 22.6024 62.5 22.6023 62.5 22.6023C62.5 22.6023 62.5 22.6022 62.5 22.6022C62.5 22.6022 62.5 22.6021 62.5 22.6021C62.5 22.6021 62.5 22.602 62.5 22.602C62.5 22.602 62.5 22.6019 62.5 22.6019C62.5 22.6019 62.5 22.6018 62.5 22.6018C62.5 22.6018 62.5 22.6017 62.5 22.6017C62.5 22.6017 62.5 22.6016 62.5 22.6016C62.5 22.6016 62.5 22.6015 62.5 22.6015C62.5 22.6015 62.5 22.6014 62.5 22.6014C62.5 22.6014 62.5 22.6013 62.5 22.6013C62.5 22.6013 62.5 22.6012 62.5 22.6012C62.5 22.6012 62.5 22.6011 62.5 22.6011C62.5 22.6011 62.5 22.6011 62.5 22.601C62.5 22.601 62.5 22.601 62.5 22.6009C62.5 22.6009 62.5 22.6009 62.5 22.6008C62.5 22.6008 62.5 22.6008 62.5 22.6007C62.5 22.6007 62.5 22.6007 62.5 22.6006C62.5 22.6006 62.5 22.6006 62.5 22.6005C62.5 22.6005 62.5 22.6005 62.5 22.6004C62.5 22.6004 62.5 22.6004 62.5 22.6003C62.5 22.6003 62.5 22.6003 62.5 22.6002C62.5 22.6002 62.5 22.6002 62.5 22.6001C62.5 22.6001 62.5 22.6001 62.5 22.6C62.5 22.6 62.5 22.6 62.5 22.6C62.5 22.5999 62.5 22.5999 62.5 22.5999C62.5 22.5998 62.5 22.5998 62.5 22.5998C62.5 22.5997 62.5 22.5997 62.5 22.5997C62.5 22.5996 62.5 22.5996 62.5 22.5996C62.5 22.5995 62.5 22.5995 62.5 22.5995C62.5 22.5994 62.5 22.5994 62.5 22.5994C62.5 22.5993 62.5 22.5993 62.5 22.5993C62.5 22.5993 62.5 22.5992 62.5 22.5992C62.5 22.5992 62.5 22.5991 62.5 22.5991C62.5 22.5991 62.5 22.599 62.5 22.599C62.5 22.599 62.5 22.5989 62.5 22.5989C62.5 22.5989 62.5 22.5988 62.5 22.5988C62.5 22.5988 62.5 22.5987 62.5 22.5987C62.5 22.5987 62.5 22.5986 62.5 22.5986C62.5 22.5986 62.5 22.5986 62.5 22.5985C62.5 22.5985 62.5 22.5985 62.5 22.5984C62.5 22.5984 62.5 22.5984 62.5 22.5983C62.5 22.5983 62.5 22.5983 62.5 22.5982C62.5 22.5982 62.5 22.5982 62.5 22.5982C62.5 22.5981 62.5 22.5981 62.5 22.5981C62.5 22.598 62.5 22.598 62.5 22.598C62.5 22.5979 62.5 22.5979 62.5 22.5979C62.5 22.5978 62.5 22.5978 62.5 22.5978C62.5 22.5977 62.5 22.5977 62.5 22.5977C62.5 22.5977 62.5 22.5976 62.5 22.5976C62.5 22.5976 62.5 22.5975 62.5 22.5975C62.5 22.5975 62.5 22.5974 62.5 22.5974C62.5 22.5974 62.5 22.5973 62.5 22.5973C62.5 22.5973 62.5 22.5973 62.5 22.5972C62.5 22.5972 62.5 22.5972 62.5 22.5971C62.5 22.5971 62.5 22.5971 62.5 22.597C62.5 22.597 62.5 22.597 62.5 22.5969C62.5 22.5969 62.5 22.5969 62.5 22.5969C62.5 22.5968 62.5 22.5968 62.5 22.5968C62.5 22.5967 62.5 22.5967 62.5 22.5967C62.5 22.5966 62.5 22.5966 62.5 22.5966C62.5 22.5966 62.5 22.5965 62.5 22.5965C62.5 22.5965 62.5 22.5964 62.5 22.5964C62.5 22.5964 62.5 22.5963 62.5 22.5963C62.5 22.5963 62.5 22.5963 62.5 22.5962C62.5 22.5962 62.5 22.5962 62.5 22.5961C62.5 22.5961 62.5 22.5961 62.5 22.596C62.5 22.596 62.5 22.596 62.5 22.596C62.5 22.5959 62.5 22.5959 62.5 22.5959C62.5 22.5958 62.5 22.5958 62.5 22.5958C62.5 22.5957 62.5 22.5957 62.5 22.5957C62.5 22.5957 62.5 22.5956 62.5 22.5956C62.5 22.5956 62.5 22.5955 62.5 22.5955C62.5 22.5955 62.5 22.5954 62.5 22.5954C62.5 22.5954 62.5 22.5954 62.5 22.5953C62.5 22.5953 62.5 22.5953 62.5 22.5952C62.5 22.5952 62.5 22.5952 62.5 22.5951C62.5 22.5951 62.5 22.5951 62.5 22.5951C62.5 22.595 62.5 22.595 62.5 22.595C62.5 22.5949 62.5 22.5949 62.5 22.5949C62.5 22.5949 62.5 22.5948 62.5 22.5948C62.5 22.5948 62.5 22.5947 62.5 22.5947C62.5 22.5947 62.5 22.5947 62.5 22.5946C62.5 22.5946 62.5 22.5946 62.5 22.5945C62.5 22.5945 62.5 22.5945 62.5 22.5944C62.5 22.5944 62.5 22.5944 62.5 22.5944C62.5 22.5943 62.5 22.5943 62.5 22.5943C62.5 22.5942 62.5 22.5942 62.5 22.5942C62.5 22.5942 62.5 22.5941 62.5 22.5941C62.5 22.5941 62.5 22.594 62.5 22.594C62.5 22.594 62.5 22.594 62.5 22.5939C62.5 22.5939 62.5 22.5939 62.5 22.5938C62.5 22.5938 62.5 22.5938 62.5 22.5938C62.5 22.5937 62.5 22.5937 62.5 22.5937C62.5 22.5936 62.5 22.5936 62.5 22.5936C62.5 22.5936 62.5 22.5935 62.5 22.5935C62.5 22.5935 62.5 22.5934 62.5 22.5934C62.5 22.5934 62.5 22.5934 62.5 22.5933C62.5 22.5933 62.5 22.5933 62.5 22.5932C62.5 22.5932 62.5 22.5932 62.5 22.5932C62.5 22.5931 62.5 22.5931 62.5 22.5931C62.5 22.593 62.5 22.593 62.5 22.593C62.5 22.593 62.5 22.5929 62.5 22.5929C62.5 22.5929 62.5 22.5928 62.5 22.5928C62.5 22.5928 62.5 22.5928 62.5 22.5927C62.5 22.5927 62.5 22.5927 62.5 22.5927C62.5 22.5926 62.5 22.5926 62.5 22.5926C62.5 22.5925 62.5 22.5925 62.5 22.5925C62.5 22.5925 62.5 22.5924 62.5 22.5924C62.5 22.5924 62.5 22.5923 62.5 22.5923C62.5 22.5923 62.5 22.5923 62.5 22.5922C62.5 22.5922 62.5 22.5922 62.5 22.5922C62.5 22.5921 62.5 22.5921 62.5 22.5921C62.5 22.592 62.5 22.592 62.5 22.592C62.5 22.592 62.5 22.5919 62.5 22.5919C62.5 22.5919 62.5 22.5919 62.5 22.5918C62.5 22.5918 62.5 22.5918 62.5 22.5917C62.5 22.5917 62.5 22.5917 62.5 22.5917C62.5 22.5916 62.5 22.5916 62.5 22.5916C62.5 22.5916 62.5 22.5915 62.5 22.5915C62.5 22.5915 62.5 22.5914 62.5 22.5914C62.5 22.5914 62.5 22.5914 62.5 22.5913C62.5 22.5913 62.5 22.5913 62.5 22.5913C62.5 22.5912 62.5 22.5912 62.5 22.5912C62.5 22.5911 62.5 22.5911 62.5 22.5911C62.5 22.5911 62.5 22.591 62.5 22.591C62.5 22.591 62.5 22.591 62.5 22.5909C62.5 22.5909 62.5 22.5909 62.5 22.5909C62.5 22.5908 62.5 22.5908 62.5 22.5908C62.5 22.5907 62.5 22.5907 62.5 22.5907C62.5 22.5907 62.5 22.5906 62.5 22.5906C62.5 22.5906 62.5 22.5906 62.5 22.5905C62.5 22.5905 62.5 22.5905 62.5 22.5905C62.5 22.5904 62.5 22.5904 62.5 22.5904C62.5 22.5903 62.5 22.5903 62.5 22.5903C62.5 22.5903 62.5 22.5902 62.5 22.5902C62.5 22.5902 62.5 22.5902 62.5 22.5901C62.5 22.5901 62.5 22.5901 62.5 22.5901C62.5 22.59 62.5 22.59 62.5 22.59C62.5 22.59 62.5 22.5899 62.5 22.5899C62.5 22.5899 62.5 22.5899 62.5 22.5898C62.5 22.5898 62.5 22.5898 62.5 22.5898C62.5 22.5897 62.5 22.5897 62.5 22.5897C62.5 22.5896 62.5 22.5896 62.5 22.5896C62.5 22.5896 62.5 22.5895 62.5 22.5895C62.5 22.5895 62.5 22.5895 62.5 22.5894C62.5 22.5894 62.5 22.5894 62.5 22.5894C62.5 22.5893 62.5 22.5893 62.5 22.5893C62.5 22.5893 62.5 22.5892 62.5 22.5892C62.5 22.5892 62.5 22.5892 62.5 22.5891C62.5 22.5891 62.5 22.5891 62.5 22.5891C62.5 22.589 62.5 22.589 62.5 22.589C62.5 22.589 62.5 22.5889 62.5 22.5889C62.5 22.5889 62.5 22.5889 62.5 22.5888C62.5 22.5888 62.5 22.5888 62.5 22.5888C62.5 22.5887 62.5 22.5887 62.5 22.5887C62.5 22.5887 62.5 22.5886 62.5 22.5886C62.5 22.5886 62.5 22.5886 62.5 22.5885C62.5 22.5885 62.5 22.5885 62.5 22.5885C62.5 22.5884 62.5 22.5884 62.5 22.5884C62.5 22.5884 62.5 22.5883 62.5 22.5883C62.5 22.5883 62.5 22.5883 62.5 22.5882C62.5 22.5882 62.5 22.5882 62.5 22.5882C62.5 22.5881 62.5 22.5881 62.5 22.5881C62.5 22.5881 62.5 22.588 62.5 22.588C62.5 22.588 62.5 22.588 62.5 22.5879C62.5 22.5879 62.5 22.5879 62.5 22.5879C62.5 22.5878 62.5 22.5878 62.5 22.5878C62.5 22.5878 62.5 22.5877 62.5 22.5877C62.5 22.5877 62.5 22.5877 62.5 22.5876C62.5 22.5876 62.5 22.5876 62.5 22.5876C62.5 22.5876 62.5 22.5875 62.5 22.5875C62.5 22.5875 62.5 22.5875 62.5 22.5874C62.5 22.5874 62.5 22.5874 62.5 22.5874C62.5 22.5873 62.5 22.5873 62.5 22.5873C62.5 22.5873 62.5 22.5872 62.5 22.5872C62.5 22.5872 62.5 22.5872 62.5 22.5871C62.5 22.5871 62.5 22.5871 62.5 22.5871C62.5 22.5871 62.5 22.587 62.5 22.587C62.5 22.587 62.5 22.587 62.5 22.5869C62.5 22.5869 62.5 22.5869 62.5 22.5869C62.5 22.5868 62.5 22.5868 62.5 22.5868C62.5 22.5868 62.5 22.5867 62.5 22.5867C62.5 22.5867 62.5 22.5867 62.5 22.5867C62.5 22.5866 62.5 22.5866 62.5 22.5866C62.5 22.5866 62.5 22.5865 62.5 22.5865C62.5 22.5865 62.5 22.5865 62.5 22.5864C62.5 22.5864 62.5 22.5864 62.5 22.5864C62.5 22.5864 62.5 22.5863 62.5 22.5863C62.5 22.5863 62.5 22.5863 62.5 22.5862C62.5 22.5862 62.5 22.5862 62.5 22.5862C62.5 22.5861 62.5 22.5861 62.5 22.5861C62.5 22.5861 62.5 22.5861 62.5 22.586C62.5 22.586 62.5 22.586 62.5 22.586C62.5 22.5859 62.5 22.5859 62.5 22.5859C62.5 22.5859 62.5 22.5858 62.5 22.5858C62.5 22.5858 62.5 22.5858 62.5 22.5858C62.5 22.5857 62.5 22.5857 62.5 22.5857C62.5 22.5857 62.5 22.5856 62.5 22.5856C62.5 22.5856 62.5 22.5856 62.5 22.5856C62.5 22.5855 62.5 22.5855 62.5 22.5855C62.5 22.5855 62.5 22.5854 62.5 22.5854C62.5 22.5854 62.5 22.5854 62.5 22.5854C62.5 22.5853 62.5 22.5853 62.5 22.5853C62.5 22.5853 62.5 22.5852 62.5 22.5852C62.5 22.5852 62.5 22.5852 62.5 22.5852C62.5 22.5851 62.5 22.5851 62.5 22.5851C62.5 22.5851 62.5 22.5851 62.5 22.585C62.5 22.585 62.5 22.585 62.5 22.585C62.5 22.5849 62.5 22.5849 62.5 22.5849C62.5 22.5849 62.5 22.5849 62.5 22.5848C62.5 22.5848 62.5 22.5848 62.5 22.5848C62.5 22.5847 62.5 22.5847 62.5 22.5847C62.5 22.5847 62.5 22.5847 62.5 22.5846C62.5 22.5846 62.5 22.5846 62.5 22.5846C62.5 22.5846 62.5 22.5845 62.5 22.5845C62.5 22.5845 62.5 22.5845 62.5 22.5844C62.5 22.5844 62.5 22.5844 62.5 22.5844C62.5 22.5844 62.5 22.5843 62.5 22.5843C62.5 22.5843 62.5 22.5843 62.5 22.5843C62.5 22.5842 62.5 22.5842 62.5 22.5842C62.5 22.5842 62.5 22.5842 62.5 22.5841C62.5 22.5841 62.5 22.5841 62.5 22.5841C62.5 22.5841 62.5 22.584 62.5 22.584C62.5 22.584 62.5 22.584 62.5 22.5839C62.5 22.5839 62.5 22.5839 62.5 22.5839C62.5 22.5839 62.5 22.5838 62.5 22.5838C62.5 22.5838 62.5 22.5838 62.5 22.5838C62.5 22.5837 62.5 22.5837 62.5 22.5837C62.5 22.5837 62.5 22.5837 62.5 22.5836C62.5 22.5836 62.5 22.5836 62.5 22.5836C62.5 22.5836 62.5 22.5835 62.5 22.5835C62.5 22.5835 62.5 22.5835 62.5 22.5835C62.5 22.5834 62.5 22.5834 62.5 22.5834C62.5 22.5834 62.5 22.5834 62.5 22.5833C62.5 22.5833 62.5 22.5833 62.5 22.5833C62.5 22.5833 62.5 22.5832 62.5 22.5832C62.5 22.5832 62.5 22.5832 62.5 22.5832C62.5 22.5831 62.5 22.5831 62.5 22.5831C62.5 22.5831 62.5 22.5831 62.5 22.583C62.5 22.583 62.5 22.583 62.5 22.583C62.5 22.583 62.5 22.5829 62.5 22.5829C62.5 22.5829 62.5 22.5829 62.5 22.5829C62.5 22.5828 62.5 22.5828 62.5 22.5828C62.5 22.5828 62.5 22.5828 62.5 22.5828C62.5 22.5827 62.5 22.5827 62.5 22.5827C62.5 22.5827 62.5 22.5827 62.5 22.5826C62.5 22.5826 62.5 22.5826 62.5 22.5826C62.5 22.5826 62.5 22.5825 62.5 22.5825C62.5 22.5825 62.5 22.5825 62.5 22.5825C62.5 22.5824 62.5 22.5824 62.5 22.5824C62.5 22.5824 62.5 22.5824 62.5 22.5824C62.5 22.5823 62.5 22.5823 62.5 22.5823C62.5 22.5823 62.5 22.5823 62.5 22.5822C62.5 22.5822 62.5 22.5822 62.5 22.5822C62.5 22.5822 62.5 22.5821 62.5 22.5821C62.5 22.5821 62.5 22.5821 62.5 22.5821C62.5 22.5821 62.5 22.582 62.5 22.582C62.5 22.582 62.5 22.582 62.5 22.582C62.5 22.5819 62.5 22.5819 62.5 22.5819C62.5 22.5819 62.5 22.5819 62.5 22.5819C62.5 22.5818 62.5 22.5818 62.5 22.5818C62.5 22.5818 62.5 22.5818 62.5 22.5817C62.5 22.5817 62.5 22.5817 62.5 22.5817C62.5 22.5817 62.5 22.5817 62.5 22.5816C62.5 22.5816 62.5 22.5816 62.5 22.5816C62.5 22.5816 62.5 22.5815 62.5 22.5815C62.5 22.5815 62.5 22.5815 62.5 22.5815C62.5 22.5815 62.5 22.5814 62.5 22.5814C62.5 22.5814 62.5 22.5814 62.5 22.5814C62.5 22.5814 62.5 22.5813 62.5 22.5813C62.5 22.5813 62.5 22.5813 62.5 22.5813C62.5 22.5812 62.5 22.5812 62.5 22.5812C62.5 22.5812 62.5 22.5812 62.5 22.5812C62.5 22.5811 62.5 22.5811 62.5 22.5811C62.5 22.5811 62.5 22.5811 62.5 22.5811C62.5 22.581 62.5 22.581 62.5 22.581C62.5 22.581 62.5 22.581 62.5 22.581C62.5 22.5809 62.5 22.5809 62.5 22.5809C62.5 22.5809 62.5 22.5809 62.5 22.5809C62.5 22.5808 62.5 22.5808 62.5 22.5808C62.5 22.5808 62.5 22.5808 62.5 22.5808C62.5 22.5807 62.5 22.5807 62.5 22.5807C62.5 22.5807 62.5 22.5807 62.5 22.5807C62.5 22.5806 62.5 22.5806 62.5 22.5806C62.5 22.5806 62.5 22.5806 62.5 22.5806C62.5 22.5805 62.5 22.5805 62.5 22.5805C62.5 22.5805 62.5 22.5805 62.5 22.5805C62.5 22.5804 62.5 22.5804 62.5 22.5804C62.5 22.5804 62.5 22.5804 62.5 22.5804C62.5 22.5803 62.5 22.5803 62.5 22.5803C62.5 22.5803 62.5 22.5803 62.5 22.5803C62.5 22.5802 62.5 22.5802 62.5 22.5802C62.5 22.5802 62.5 22.5802 62.5 22.5802C62.5 22.5802 62.5 22.5801 62.5 22.5801C62.5 22.5801 62.5 22.5801 62.5 22.5801C62.5 22.5801 62.5 22.58 62.5 22.58C62.5 22.58 62.5 22.58 62.5 22.58C62.5 22.58 62.5 22.58 62.5 22.5799C62.5 22.5799 62.5 22.5799 62.5 22.5799C62.5 22.5799 62.5 22.5799 62.5 22.5798C62.5 22.5798 62.5 22.5798 62.5 22.5798C62.5 22.5798 62.5 22.5798 62.5 22.5798C62.5 22.5797 62.5 22.5797 62.5 22.5797C62.5 22.5797 62.5 22.5797 62.5 22.5797C62.5 22.5796 62.5 22.5796 62.5 22.5796C62.5 22.5796 62.5 22.5796 62.5 22.5796C62.5 22.5796 62.5 22.5795 62.5 22.5795C62.5 22.5795 62.5 22.5795 62.5 22.5795C62.5 22.5795 62.5 22.5795 62.5 22.5794C62.5 22.5794 62.5 22.5794 62.5 22.5794C62.5 22.5794 62.5 22.5794 62.5 22.5794C62.5 22.5793 62.5 22.5793 62.5 22.5793C62.5 22.5793 62.5 22.5793 62.5 22.5793C62.5 22.5793 62.5 22.5792 62.5 22.5792C62.5 22.5792 62.5 22.5792 62.5 22.5792C62.5 22.5792 62.5 22.5792 62.5 22.5791C62.5 22.5791 62.5 22.5791 62.5 22.5791C62.5 22.5791 62.5 22.5791 62.5 22.5791C62.5 22.579 62.5 22.579 62.5 22.579C62.5 22.579 62.5 22.579 62.5 22.579C62.5 22.579 62.5 22.5789 62.5 22.5789C62.5 22.5789 62.5 22.5789 62.5 22.5789C62.5 22.5789 62.5 22.5789 62.5 22.5788C62.5 22.5788 62.5 22.5788 62.5 22.5788C62.5 22.5788 62.5 22.5788 62.5 22.5788C62.5 22.5788 62.5 22.5787 62.5 22.5787C62.5 22.5787 62.5 22.5787 62.5 22.5787C62.5 22.5787 62.5 22.5787 62.5 22.5786C62.5 22.5786 62.5 22.5786 62.5 22.5786C62.5 22.5786 62.5 22.5786 62.5 22.5786C62.5 22.5786 62.5 22.5785 62.5 22.5785C62.5 22.5785 62.5 22.5785 62.5 22.5785C62.5 22.5785 62.5 22.5785 62.5 22.5785C62.5 22.5784 62.5 22.5784 62.5 22.5784C62.5 22.5784 62.5 22.5784 62.5 22.5784C62.5 22.5784 62.5 22.5784 62.5 22.5783C62.5 22.5783 62.5 22.5783 62.5 22.5783C62.5 22.5783 62.5 22.5783 62.5 22.5783C62.5 22.5783 62.5 22.5782 62.5 22.5782C62.5 22.5782 62.5 22.5782 62.5 22.5782C62.5 22.5782 62.5 22.5782 62.5 22.5782C62.5 22.5781 62.5 22.5781 62.5 22.5781C62.5 22.5781 62.5 22.5781 62.5 22.5781C62.5 22.5781 62.5 22.5781 62.5 22.578C62.5 22.578 62.5 22.578 62.5 22.578C62.5 22.578 62.5 22.578 62.5 22.578C62.5 22.578 62.5 22.578 62.5 22.5779C62.5 22.5779 62.5 22.5779 62.5 22.5779C62.5 22.5779 62.5 22.5779 62.5 22.5779C62.5 22.5779 62.5 22.5778 62.5 22.5778C62.5 22.5778 62.5 22.5778 62.5 22.5778C62.5 22.5778 62.5 22.5778 62.5 22.5778C62.5 22.5778 62.5 22.5777 62.5 22.5777C62.5 22.5777 62.5 22.5777 62.5 22.5777C62.5 22.5777 62.5 22.5777 62.5 22.5777C62.5 22.5777 62.5 22.5776 62.5 22.5776C62.5 22.5776 62.5 22.5776 62.5 22.5776C62.5 22.5776 62.5 22.5776 62.5 22.5776C62.5 22.5776 62.5 22.5775 62.5 22.5775C62.5 22.5775 62.5 22.5775 62.5 22.5775C62.5 22.5775 62.5 22.5775 62.5 22.5775C62.5 22.5775 62.5 22.5775 62.5 22.5774C62.5 22.5774 62.5 22.5774 62.5 22.5774C62.5 22.5774 62.5 22.5774 62.5 22.5774C62.5 22.5774 62.5 22.5774 62.5 22.5773C62.5 22.5773 62.5 22.5773 62.5 22.5773C62.5 22.5773 62.5 22.5773 62.5 22.5773C62.5 22.5773 62.5 22.5773 62.5 22.5773C62.5 22.5772 62.5 22.5772 62.5 22.5772C62.5 22.5772 62.5 22.5772 62.5 22.5772C62.5 22.5772 62.5 22.5772 62.5 22.5772C62.5 22.5772 62.5 22.5771 62.5 22.5771C62.5 22.5771 62.5 22.5771 62.5 22.5771C62.5 22.5771 62.5 22.5771 62.5 22.5771C62.5 22.5771 62.5 22.5771 62.5 22.5771C62.5 22.577 62.5 22.577 62.5 22.577C62.5 22.577 62.5 22.577 62.5 22.577C62.5 22.577 62.5 22.577 62.5 22.577C62.5 22.577 62.5 22.577 62.5 22.5769C62.5 22.5769 62.5 22.5769 62.5 22.5769C62.5 22.5769 62.5 22.5769 62.5 22.5769C62.5 22.5769 62.5 22.5769 62.5 22.5769C62.5 22.5769 62.5 22.5768 62.5 22.5768C62.5 22.5768 62.5 22.5768 62.5 22.5768C62.5 22.5768 62.5 22.5768 62.5 22.5768C62.5 22.5768 62.5 22.5768 62.5 22.5768C62.5 22.5767 62.5 22.5767 62.5 22.5767C62.5 22.5767 62.5 22.5767 62.5 22.5767C62.5 22.5767 62.5 22.5767 62.5 22.5767C62.5 22.5767 62.5 22.5767 62.5 22.5767C62.5 22.5766 62.5 22.5766 62.5 22.5766C62.5 22.5766 62.5 22.5766 62.5 22.5766C62.5 22.5766 62.5 22.5766 62.5 22.5766C62.5 22.5766 62.5 22.5766 62.5 22.5766C62.5 22.5765 62.5 22.5765 62.5 22.5765C62.5 22.5765 62.5 22.5765 62.5 22.5765C62.5 22.5765 62.5 22.5765 62.5 22.5765C62.5 22.5765 62.5 22.5765 62.5 22.5765C62.5 22.5765 62.5 22.5765 62.5 22.5764C62.5 22.5764 62.5 22.5764 62.5 22.5764C62.5 22.5764 62.5 22.5764 62.5 22.5764C62.5 22.5764 62.5 22.5764 62.5 22.5764C62.5 22.5764 62.5 22.5764 62.5 22.5764C62.5 22.5763 62.5 22.5763 62.5 22.5763C62.5 22.5763 62.5 22.5763 62.5 22.5763C62.5 22.5763 62.5 22.5763 62.5 22.5763C62.5 22.5763 62.5 22.5763 62.5 22.5763C62.5 22.5763 62.5 22.5763 62.5 22.5763C62.5 22.5762 62.5 22.5762 62.5 22.5762C62.5 22.5762 62.5 22.5762 62.5 22.5762C62.5 22.5762 62.5 22.5762 62.5 22.5762C62.5 22.5762 62.5 22.5762 62.5 22.5762C62.5 22.5762 62.5 22.5762 62.5 22.5762C62.5 22.5761 62.5 22.5761 62.5 22.5761C62.5 22.5761 62.5 22.5761 62.5 22.5761C62.5 22.5761 62.5 22.5761 62.5 22.5761C62.5 22.5761 62.5 22.5761 62.5 22.5761C62.5 22.5761 62.5 22.5761 62.5 22.5761C62.5 22.5761 62.5 22.576 62.5 22.576C62.5 22.576 62.5 22.576 62.5 22.576C62.5 22.576 62.5 22.576 62.5 22.576C62.5 22.576 62.5 22.576 62.5 22.576C62.5 22.576 62.5 22.576 62.5 22.576C62.5 22.576 62.5 22.576 62.5 22.576C62.5 22.576 62.5 22.576 62.5 22.5759C62.5 22.5759 62.5 22.5759 62.5 22.5759C62.5 22.5759 62.5 22.5759 62.5 22.5759C62.5 22.5759 62.5 22.5759 62.5 22.5759C62.5 22.5759 62.5 22.5759 62.5 22.5759C62.5 22.5759 62.5 22.5759 62.5 22.5759C62.5 22.5759 62.5 22.5759 62.5 22.5759C62.5 22.5759 62.5 22.5758 62.5 22.5758C62.5 22.5758 62.5 22.5758 62.5 22.5758C62.5 22.5758 62.5 22.5758 62.5 22.5758C62.5 22.5758 62.5 22.5758 62.5 22.5758C62.5 22.5758 62.5 22.5758 62.5 22.5758C62.5 22.5758 62.5 22.5758 62.5 22.5758C62.5 22.5758 62.5 22.5758 62.5 22.5758C62.5 22.5758 62.5 22.5758 62.5 22.5758C62.5 22.5757 62.5 22.5757 62.5 22.5757C62.5 22.5757 62.5 22.5757 62.5 22.5757C62.5 22.5757 62.5 22.5757 62.5 22.5757C62.5 22.5757 62.5 22.5757 62.5 22.5757C62.5 22.5757 62.5 22.5757 62.5 22.5757C62.5 22.5757 62.5 22.5757 62.5 22.5757C62.5 22.5757 62.5 22.5757 62.5 22.5757C62.5 22.5757 62.5 22.5757 62.5 22.5757C62.5 22.5757 62.5 22.5757 62.5 22.5757C62.5 22.5756 62.5 22.5756 62.5 22.5756C62.5 22.5756 62.5 22.5756 62.5 22.5756C62.5 22.5756 62.5 22.5756 62.5 22.5756C62.5 22.5756 62.5 22.5756 62.5 22.5756C62.5 22.5756 62.5 22.5756 62.5 22.5756C62.5 22.5756 62.5 22.5756 62.5 22.5756C62.5 22.5756 62.5 22.5756 62.5 22.5756C62.5 22.5756 62.5 22.5756 62.5 22.5756C62.5 22.5756 62.5 22.5756 62.5 22.5756C62.5 22.5756 62.5 22.5756 62.5 22.5756C62.5 22.5756 62.5 22.5756 62.5 22.5756C62.5 22.5756 62.5 22.5756 62.5 22.5756C62.5 22.5756 62.5 22.5756 62.5 22.5755C62.5 22.5755 62.5 22.5755 62.5 22.5755C62.5 22.5755 62.5 22.5755 62.5 22.5755C62.5 22.5755 62.5 22.5755 62.5 22.5755C62.5 22.5755 62.5 22.5755 62.5 22.5755C62.5 22.5755 62.5 22.5755 62.5 22.5755C62.5 22.5755 62.5 22.5755 62.5 22.5755C62.5 22.5755 62.5 22.5755 62.5 22.5755C62.5 22.5755 62.5 22.5755 62.5 22.5755C62.5 22.5755 62.5 22.5755 62.5 22.5755C62.5 22.5755 62.5 22.5755 62.5 22.5755C62.5 22.5755 62.5 22.5755 62.5 22.5755V22.5755C62.5 22.5755 62.5 22.5755 62.5 22.5755V22.5755C62.5 22.5755 62.5 22.5755 62.5 22.5755C62.5 22.5755 62.5 22.5755 62.5 22.5755C62.5 22.5755 62.5 22.5755 62.5 22.5755C62.5 22.5755 62.5 22.5755 62.5 22.5755C62.5 22.5755 62.5 22.5755 62.5 22.5755C62.5 22.5755 62.5 22.5755 60.5 22.5755C58.5 22.5755 58.5 22.5755 58.5 22.5755C58.5 22.5755 58.5 22.5755 58.5 22.5755C58.5 22.5755 58.5 22.5755 58.5 22.5755C58.5 22.5755 58.5 22.5755 58.5 22.5755C58.5 22.5755 58.5 22.5755 58.5 22.5755C58.5 22.5755 58.5 22.5755 58.5 22.5755V22.5755C58.5 22.5755 58.5 22.5755 58.5 22.5755V22.5755C58.5 22.5755 58.5 22.5755 58.5 22.5755C58.5 22.5755 58.5 22.5755 58.5 22.5755C58.5 22.5755 58.5 22.5755 58.5 22.5755C58.5 22.5755 58.5 22.5755 58.5 22.5755C58.5 22.5755 58.5 22.5755 58.5 22.5755C58.5 22.5755 58.5 22.5755 58.5 22.5755C58.5 22.5755 58.5 22.5755 58.5 22.5755C58.5 22.5755 58.5 22.5755 58.5 22.5755C58.5 22.5755 58.5 22.5755 58.5 22.5755C58.5 22.5755 58.5 22.5755 58.5 22.5755C58.5 22.5755 58.5 22.5755 58.5 22.5755C58.5 22.5756 58.5 22.5756 58.5 22.5756C58.5 22.5756 58.5 22.5756 58.5 22.5756C58.5 22.5756 58.5 22.5756 58.5 22.5756C58.5 22.5756 58.5 22.5756 58.5 22.5756C58.5 22.5756 58.5 22.5756 58.5 22.5756C58.5 22.5756 58.5 22.5756 58.5 22.5756C58.5 22.5756 58.5 22.5756 58.5 22.5756C58.5 22.5756 58.5 22.5756 58.5 22.5756C58.5 22.5756 58.5 22.5756 58.5 22.5756C58.5 22.5756 58.5 22.5756 58.5 22.5756C58.5 22.5756 58.5 22.5756 58.5 22.5756C58.5 22.5756 58.5 22.5756 58.5 22.5756C58.5 22.5756 58.5 22.5756 58.5 22.5757C58.5 22.5757 58.5 22.5757 58.5 22.5757C58.5 22.5757 58.5 22.5757 58.5 22.5757C58.5 22.5757 58.5 22.5757 58.5 22.5757C58.5 22.5757 58.5 22.5757 58.5 22.5757C58.5 22.5757 58.5 22.5757 58.5 22.5757C58.5 22.5757 58.5 22.5757 58.5 22.5757C58.5 22.5757 58.5 22.5757 58.5 22.5757C58.5 22.5757 58.5 22.5757 58.5 22.5757C58.5 22.5757 58.5 22.5757 58.5 22.5758C58.5 22.5758 58.5 22.5758 58.5 22.5758C58.5 22.5758 58.5 22.5758 58.5 22.5758C58.5 22.5758 58.5 22.5758 58.5 22.5758C58.5 22.5758 58.5 22.5758 58.5 22.5758C58.5 22.5758 58.5 22.5758 58.5 22.5758C58.5 22.5758 58.5 22.5758 58.5 22.5758C58.5 22.5758 58.5 22.5758 58.5 22.5758C58.5 22.5758 58.5 22.5759 58.5 22.5759C58.5 22.5759 58.5 22.5759 58.5 22.5759C58.5 22.5759 58.5 22.5759 58.5 22.5759C58.5 22.5759 58.5 22.5759 58.5 22.5759C58.5 22.5759 58.5 22.5759 58.5 22.5759C58.5 22.5759 58.5 22.5759 58.5 22.5759C58.5 22.5759 58.5 22.5759 58.5 22.5759C58.5 22.576 58.5 22.576 58.5 22.576C58.5 22.576 58.5 22.576 58.5 22.576C58.5 22.576 58.5 22.576 58.5 22.576C58.5 22.576 58.5 22.576 58.5 22.576C58.5 22.576 58.5 22.576 58.5 22.576C58.5 22.576 58.5 22.576 58.5 22.576C58.5 22.576 58.5 22.5761 58.5 22.5761C58.5 22.5761 58.5 22.5761 58.5 22.5761C58.5 22.5761 58.5 22.5761 58.5 22.5761C58.5 22.5761 58.5 22.5761 58.5 22.5761C58.5 22.5761 58.5 22.5761 58.5 22.5761C58.5 22.5761 58.5 22.5761 58.5 22.5762C58.5 22.5762 58.5 22.5762 58.5 22.5762C58.5 22.5762 58.5 22.5762 58.5 22.5762C58.5 22.5762 58.5 22.5762 58.5 22.5762C58.5 22.5762 58.5 22.5762 58.5 22.5762C58.5 22.5762 58.5 22.5762 58.5 22.5763C58.5 22.5763 58.5 22.5763 58.5 22.5763C58.5 22.5763 58.5 22.5763 58.5 22.5763C58.5 22.5763 58.5 22.5763 58.5 22.5763C58.5 22.5763 58.5 22.5763 58.5 22.5763C58.5 22.5763 58.5 22.5763 58.5 22.5764C58.5 22.5764 58.5 22.5764 58.5 22.5764C58.5 22.5764 58.5 22.5764 58.5 22.5764C58.5 22.5764 58.5 22.5764 58.5 22.5764C58.5 22.5764 58.5 22.5764 58.5 22.5764C58.5 22.5765 58.5 22.5765 58.5 22.5765C58.5 22.5765 58.5 22.5765 58.5 22.5765C58.5 22.5765 58.5 22.5765 58.5 22.5765C58.5 22.5765 58.5 22.5765 58.5 22.5765C58.5 22.5765 58.5 22.5765 58.5 22.5766C58.5 22.5766 58.5 22.5766 58.5 22.5766C58.5 22.5766 58.5 22.5766 58.5 22.5766C58.5 22.5766 58.5 22.5766 58.5 22.5766C58.5 22.5766 58.5 22.5766 58.5 22.5767C58.5 22.5767 58.5 22.5767 58.5 22.5767C58.5 22.5767 58.5 22.5767 58.5 22.5767C58.5 22.5767 58.5 22.5767 58.5 22.5767C58.5 22.5767 58.5 22.5767 58.5 22.5768C58.5 22.5768 58.5 22.5768 58.5 22.5768C58.5 22.5768 58.5 22.5768 58.5 22.5768C58.5 22.5768 58.5 22.5768 58.5 22.5768C58.5 22.5768 58.5 22.5769 58.5 22.5769C58.5 22.5769 58.5 22.5769 58.5 22.5769C58.5 22.5769 58.5 22.5769 58.5 22.5769C58.5 22.5769 58.5 22.5769 58.5 22.5769C58.5 22.577 58.5 22.577 58.5 22.577C58.5 22.577 58.5 22.577 58.5 22.577C58.5 22.577 58.5 22.577 58.5 22.577C58.5 22.577 58.5 22.577 58.5 22.5771C58.5 22.5771 58.5 22.5771 58.5 22.5771C58.5 22.5771 58.5 22.5771 58.5 22.5771C58.5 22.5771 58.5 22.5771 58.5 22.5771C58.5 22.5771 58.5 22.5772 58.5 22.5772C58.5 22.5772 58.5 22.5772 58.5 22.5772C58.5 22.5772 58.5 22.5772 58.5 22.5772C58.5 22.5772 58.5 22.5772 58.5 22.5773C58.5 22.5773 58.5 22.5773 58.5 22.5773C58.5 22.5773 58.5 22.5773 58.5 22.5773C58.5 22.5773 58.5 22.5773 58.5 22.5773C58.5 22.5774 58.5 22.5774 58.5 22.5774C58.5 22.5774 58.5 22.5774 58.5 22.5774C58.5 22.5774 58.5 22.5774 58.5 22.5774C58.5 22.5775 58.5 22.5775 58.5 22.5775C58.5 22.5775 58.5 22.5775 58.5 22.5775C58.5 22.5775 58.5 22.5775 58.5 22.5775C58.5 22.5775 58.5 22.5776 58.5 22.5776C58.5 22.5776 58.5 22.5776 58.5 22.5776C58.5 22.5776 58.5 22.5776 58.5 22.5776C58.5 22.5776 58.5 22.5777 58.5 22.5777C58.5 22.5777 58.5 22.5777 58.5 22.5777C58.5 22.5777 58.5 22.5777 58.5 22.5777C58.5 22.5777 58.5 22.5778 58.5 22.5778C58.5 22.5778 58.5 22.5778 58.5 22.5778C58.5 22.5778 58.5 22.5778 58.5 22.5778C58.5 22.5778 58.5 22.5779 58.5 22.5779C58.5 22.5779 58.5 22.5779 58.5 22.5779C58.5 22.5779 58.5 22.5779 58.5 22.5779C58.5 22.578 58.5 22.578 58.5 22.578C58.5 22.578 58.5 22.578 58.5 22.578C58.5 22.578 58.5 22.578 58.5 22.578C58.5 22.5781 58.5 22.5781 58.5 22.5781C58.5 22.5781 58.5 22.5781 58.5 22.5781C58.5 22.5781 58.5 22.5781 58.5 22.5782C58.5 22.5782 58.5 22.5782 58.5 22.5782C58.5 22.5782 58.5 22.5782 58.5 22.5782C58.5 22.5782 58.5 22.5783 58.5 22.5783C58.5 22.5783 58.5 22.5783 58.5 22.5783C58.5 22.5783 58.5 22.5783 58.5 22.5783C58.5 22.5784 58.5 22.5784 58.5 22.5784C58.5 22.5784 58.5 22.5784 58.5 22.5784C58.5 22.5784 58.5 22.5784 58.5 22.5785C58.5 22.5785 58.5 22.5785 58.5 22.5785C58.5 22.5785 58.5 22.5785 58.5 22.5785C58.5 22.5785 58.5 22.5786 58.5 22.5786C58.5 22.5786 58.5 22.5786 58.5 22.5786C58.5 22.5786 58.5 22.5786 58.5 22.5786C58.5 22.5787 58.5 22.5787 58.5 22.5787C58.5 22.5787 58.5 22.5787 58.5 22.5787C58.5 22.5787 58.5 22.5788 58.5 22.5788C58.5 22.5788 58.5 22.5788 58.5 22.5788C58.5 22.5788 58.5 22.5788 58.5 22.5788C58.5 22.5789 58.5 22.5789 58.5 22.5789C58.5 22.5789 58.5 22.5789 58.5 22.5789C58.5 22.5789 58.5 22.579 58.5 22.579C58.5 22.579 58.5 22.579 58.5 22.579C58.5 22.579 58.5 22.579 58.5 22.5791C58.5 22.5791 58.5 22.5791 58.5 22.5791C58.5 22.5791 58.5 22.5791 58.5 22.5791C58.5 22.5792 58.5 22.5792 58.5 22.5792C58.5 22.5792 58.5 22.5792 58.5 22.5792C58.5 22.5792 58.5 22.5793 58.5 22.5793C58.5 22.5793 58.5 22.5793 58.5 22.5793C58.5 22.5793 58.5 22.5793 58.5 22.5794C58.5 22.5794 58.5 22.5794 58.5 22.5794C58.5 22.5794 58.5 22.5794 58.5 22.5794C58.5 22.5795 58.5 22.5795 58.5 22.5795C58.5 22.5795 58.5 22.5795 58.5 22.5795C58.5 22.5795 58.5 22.5796 58.5 22.5796C58.5 22.5796 58.5 22.5796 58.5 22.5796C58.5 22.5796 58.5 22.5796 58.5 22.5797C58.5 22.5797 58.5 22.5797 58.5 22.5797C58.5 22.5797 58.5 22.5797 58.5 22.5798C58.5 22.5798 58.5 22.5798 58.5 22.5798C58.5 22.5798 58.5 22.5798 58.5 22.5798C58.5 22.5799 58.5 22.5799 58.5 22.5799C58.5 22.5799 58.5 22.5799 58.5 22.5799C58.5 22.58 58.5 22.58 58.5 22.58C58.5 22.58 58.5 22.58 58.5 22.58C58.5 22.58 58.5 22.5801 58.5 22.5801C58.5 22.5801 58.5 22.5801 58.5 22.5801C58.5 22.5801 58.5 22.5802 58.5 22.5802C58.5 22.5802 58.5 22.5802 58.5 22.5802C58.5 22.5802 58.5 22.5802 58.5 22.5803C58.5 22.5803 58.5 22.5803 58.5 22.5803C58.5 22.5803 58.5 22.5803 58.5 22.5804C58.5 22.5804 58.5 22.5804 58.5 22.5804C58.5 22.5804 58.5 22.5804 58.5 22.5805C58.5 22.5805 58.5 22.5805 58.5 22.5805C58.5 22.5805 58.5 22.5805 58.5 22.5806C58.5 22.5806 58.5 22.5806 58.5 22.5806C58.5 22.5806 58.5 22.5806 58.5 22.5807C58.5 22.5807 58.5 22.5807 58.5 22.5807C58.5 22.5807 58.5 22.5807 58.5 22.5808C58.5 22.5808 58.5 22.5808 58.5 22.5808C58.5 22.5808 58.5 22.5808 58.5 22.5809C58.5 22.5809 58.5 22.5809 58.5 22.5809C58.5 22.5809 58.5 22.5809 58.5 22.581C58.5 22.581 58.5 22.581 58.5 22.581C58.5 22.581 58.5 22.581 58.5 22.5811C58.5 22.5811 58.5 22.5811 58.5 22.5811C58.5 22.5811 58.5 22.5811 58.5 22.5812C58.5 22.5812 58.5 22.5812 58.5 22.5812C58.5 22.5812 58.5 22.5812 58.5 22.5813C58.5 22.5813 58.5 22.5813 58.5 22.5813C58.5 22.5813 58.5 22.5814 58.5 22.5814C58.5 22.5814 58.5 22.5814 58.5 22.5814C58.5 22.5814 58.5 22.5815 58.5 22.5815C58.5 22.5815 58.5 22.5815 58.5 22.5815C58.5 22.5815 58.5 22.5816 58.5 22.5816C58.5 22.5816 58.5 22.5816 58.5 22.5816C58.5 22.5817 58.5 22.5817 58.5 22.5817C58.5 22.5817 58.5 22.5817 58.5 22.5817C58.5 22.5818 58.5 22.5818 58.5 22.5818C58.5 22.5818 58.5 22.5818 58.5 22.5819C58.5 22.5819 58.5 22.5819 58.5 22.5819C58.5 22.5819 58.5 22.5819 58.5 22.582C58.5 22.582 58.5 22.582 58.5 22.582C58.5 22.582 58.5 22.5821 58.5 22.5821C58.5 22.5821 58.5 22.5821 58.5 22.5821C58.5 22.5821 58.5 22.5822 58.5 22.5822C58.5 22.5822 58.5 22.5822 58.5 22.5822C58.5 22.5823 58.5 22.5823 58.5 22.5823C58.5 22.5823 58.5 22.5823 58.5 22.5824C58.5 22.5824 58.5 22.5824 58.5 22.5824C58.5 22.5824 58.5 22.5824 58.5 22.5825C58.5 22.5825 58.5 22.5825 58.5 22.5825C58.5 22.5825 58.5 22.5826 58.5 22.5826C58.5 22.5826 58.5 22.5826 58.5 22.5826C58.5 22.5827 58.5 22.5827 58.5 22.5827C58.5 22.5827 58.5 22.5827 58.5 22.5828C58.5 22.5828 58.5 22.5828 58.5 22.5828C58.5 22.5828 58.5 22.5828 58.5 22.5829C58.5 22.5829 58.5 22.5829 58.5 22.5829C58.5 22.5829 58.5 22.583 58.5 22.583C58.5 22.583 58.5 22.583 58.5 22.583C58.5 22.5831 58.5 22.5831 58.5 22.5831C58.5 22.5831 58.5 22.5831 58.5 22.5832C58.5 22.5832 58.5 22.5832 58.5 22.5832C58.5 22.5832 58.5 22.5833 58.5 22.5833C58.5 22.5833 58.5 22.5833 58.5 22.5833C58.5 22.5834 58.5 22.5834 58.5 22.5834C58.5 22.5834 58.5 22.5834 58.5 22.5835C58.5 22.5835 58.5 22.5835 58.5 22.5835C58.5 22.5835 58.5 22.5836 58.5 22.5836C58.5 22.5836 58.5 22.5836 58.5 22.5836C58.5 22.5837 58.5 22.5837 58.5 22.5837C58.5 22.5837 58.5 22.5837 58.5 22.5838C58.5 22.5838 58.5 22.5838 58.5 22.5838C58.5 22.5838 58.5 22.5839 58.5 22.5839C58.5 22.5839 58.5 22.5839 58.5 22.5839C58.5 22.584 58.5 22.584 58.5 22.584C58.5 22.584 58.5 22.5841 58.5 22.5841C58.5 22.5841 58.5 22.5841 58.5 22.5841C58.5 22.5842 58.5 22.5842 58.5 22.5842C58.5 22.5842 58.5 22.5842 58.5 22.5843C58.5 22.5843 58.5 22.5843 58.5 22.5843C58.5 22.5843 58.5 22.5844 58.5 22.5844C58.5 22.5844 58.5 22.5844 58.5 22.5844C58.5 22.5845 58.5 22.5845 58.5 22.5845C58.5 22.5845 58.5 22.5846 58.5 22.5846C58.5 22.5846 58.5 22.5846 58.5 22.5846C58.5 22.5847 58.5 22.5847 58.5 22.5847C58.5 22.5847 58.5 22.5847 58.5 22.5848C58.5 22.5848 58.5 22.5848 58.5 22.5848C58.5 22.5849 58.5 22.5849 58.5 22.5849C58.5 22.5849 58.5 22.5849 58.5 22.585C58.5 22.585 58.5 22.585 58.5 22.585C58.5 22.5851 58.5 22.5851 58.5 22.5851C58.5 22.5851 58.5 22.5851 58.5 22.5852C58.5 22.5852 58.5 22.5852 58.5 22.5852C58.5 22.5852 58.5 22.5853 58.5 22.5853C58.5 22.5853 58.5 22.5853 58.5 22.5854C58.5 22.5854 58.5 22.5854 58.5 22.5854C58.5 22.5854 58.5 22.5855 58.5 22.5855C58.5 22.5855 58.5 22.5855 58.5 22.5856C58.5 22.5856 58.5 22.5856 58.5 22.5856C58.5 22.5856 58.5 22.5857 58.5 22.5857C58.5 22.5857 58.5 22.5857 58.5 22.5858C58.5 22.5858 58.5 22.5858 58.5 22.5858C58.5 22.5858 58.5 22.5859 58.5 22.5859C58.5 22.5859 58.5 22.5859 58.5 22.586C58.5 22.586 58.5 22.586 58.5 22.586C58.5 22.5861 58.5 22.5861 58.5 22.5861C58.5 22.5861 58.5 22.5861 58.5 22.5862C58.5 22.5862 58.5 22.5862 58.5 22.5862C58.5 22.5863 58.5 22.5863 58.5 22.5863C58.5 22.5863 58.5 22.5864 58.5 22.5864C58.5 22.5864 58.5 22.5864 58.5 22.5864C58.5 22.5865 58.5 22.5865 58.5 22.5865C58.5 22.5865 58.5 22.5866 58.5 22.5866C58.5 22.5866 58.5 22.5866 58.5 22.5867C58.5 22.5867 58.5 22.5867 58.5 22.5867C58.5 22.5867 58.5 22.5868 58.5 22.5868C58.5 22.5868 58.5 22.5868 58.5 22.5869C58.5 22.5869 58.5 22.5869 58.5 22.5869C58.5 22.587 58.5 22.587 58.5 22.587C58.5 22.587 58.5 22.5871 58.5 22.5871C58.5 22.5871 58.5 22.5871 58.5 22.5871C58.5 22.5872 58.5 22.5872 58.5 22.5872C58.5 22.5872 58.5 22.5873 58.5 22.5873C58.5 22.5873 58.5 22.5873 58.5 22.5874C58.5 22.5874 58.5 22.5874 58.5 22.5874C58.5 22.5875 58.5 22.5875 58.5 22.5875C58.5 22.5875 58.5 22.5876 58.5 22.5876C58.5 22.5876 58.5 22.5876 58.5 22.5876C58.5 22.5877 58.5 22.5877 58.5 22.5877C58.5 22.5877 58.5 22.5878 58.5 22.5878C58.5 22.5878 58.5 22.5878 58.5 22.5879C58.5 22.5879 58.5 22.5879 58.5 22.5879C58.5 22.588 58.5 22.588 58.5 22.588C58.5 22.588 58.5 22.5881 58.5 22.5881C58.5 22.5881 58.5 22.5881 58.5 22.5882C58.5 22.5882 58.5 22.5882 58.5 22.5882C58.5 22.5883 58.5 22.5883 58.5 22.5883C58.5 22.5883 58.5 22.5884 58.5 22.5884C58.5 22.5884 58.5 22.5884 58.5 22.5885C58.5 22.5885 58.5 22.5885 58.5 22.5885C58.5 22.5886 58.5 22.5886 58.5 22.5886C58.5 22.5886 58.5 22.5887 58.5 22.5887C58.5 22.5887 58.5 22.5887 58.5 22.5888C58.5 22.5888 58.5 22.5888 58.5 22.5888C58.5 22.5889 58.5 22.5889 58.5 22.5889C58.5 22.5889 58.5 22.589 58.5 22.589C58.5 22.589 58.5 22.589 58.5 22.5891C58.5 22.5891 58.5 22.5891 58.5 22.5891C58.5 22.5892 58.5 22.5892 58.5 22.5892C58.5 22.5892 58.5 22.5893 58.5 22.5893C58.5 22.5893 58.5 22.5893 58.5 22.5894C58.5 22.5894 58.5 22.5894 58.5 22.5894C58.5 22.5895 58.5 22.5895 58.5 22.5895C58.5 22.5895 58.5 22.5896 58.5 22.5896C58.5 22.5896 58.5 22.5896 58.5 22.5897C58.5 22.5897 58.5 22.5897 58.5 22.5898C58.5 22.5898 58.5 22.5898 58.5 22.5898C58.5 22.5899 58.5 22.5899 58.5 22.5899C58.5 22.5899 58.5 22.59 58.5 22.59C58.5 22.59 58.5 22.59 58.5 22.5901C58.5 22.5901 58.5 22.5901 58.5 22.5901C58.5 22.5902 58.5 22.5902 58.5 22.5902C58.5 22.5902 58.5 22.5903 58.5 22.5903C58.5 22.5903 58.5 22.5903 58.5 22.5904C58.5 22.5904 58.5 22.5904 58.5 22.5905C58.5 22.5905 58.5 22.5905 58.5 22.5905C58.5 22.5906 58.5 22.5906 58.5 22.5906C58.5 22.5906 58.5 22.5907 58.5 22.5907C58.5 22.5907 58.5 22.5907 58.5 22.5908C58.5 22.5908 58.5 22.5908 58.5 22.5909C58.5 22.5909 58.5 22.5909 58.5 22.5909C58.5 22.591 58.5 22.591 58.5 22.591C58.5 22.591 58.5 22.5911 58.5 22.5911C58.5 22.5911 58.5 22.5911 58.5 22.5912C58.5 22.5912 58.5 22.5912 58.5 22.5913C58.5 22.5913 58.5 22.5913 58.5 22.5913C58.5 22.5914 58.5 22.5914 58.5 22.5914C58.5 22.5914 58.5 22.5915 58.5 22.5915C58.5 22.5915 58.5 22.5916 58.5 22.5916C58.5 22.5916 58.5 22.5916 58.5 22.5917C58.5 22.5917 58.5 22.5917 58.5 22.5917C58.5 22.5918 58.5 22.5918 58.5 22.5918C58.5 22.5919 58.5 22.5919 58.5 22.5919C58.5 22.5919 58.5 22.592 58.5 22.592C58.5 22.592 58.5 22.592 58.5 22.5921C58.5 22.5921 58.5 22.5921 58.5 22.5922C58.5 22.5922 58.5 22.5922 58.5 22.5922C58.5 22.5923 58.5 22.5923 58.5 22.5923C58.5 22.5923 58.5 22.5924 58.5 22.5924C58.5 22.5924 58.5 22.5925 58.5 22.5925C58.5 22.5925 58.5 22.5925 58.5 22.5926C58.5 22.5926 58.5 22.5926 58.5 22.5927C58.5 22.5927 58.5 22.5927 58.5 22.5927C58.5 22.5928 58.5 22.5928 58.5 22.5928C58.5 22.5928 58.5 22.5929 58.5 22.5929C58.5 22.5929 58.5 22.593 58.5 22.593C58.5 22.593 58.5 22.593 58.5 22.5931C58.5 22.5931 58.5 22.5931 58.5 22.5932C58.5 22.5932 58.5 22.5932 58.5 22.5932C58.5 22.5933 58.5 22.5933 58.5 22.5933C58.5 22.5934 58.5 22.5934 58.5 22.5934C58.5 22.5934 58.5 22.5935 58.5 22.5935C58.5 22.5935 58.5 22.5936 58.5 22.5936C58.5 22.5936 58.5 22.5936 58.5 22.5937C58.5 22.5937 58.5 22.5937 58.5 22.5938C58.5 22.5938 58.5 22.5938 58.5 22.5938C58.5 22.5939 58.5 22.5939 58.5 22.5939C58.5 22.594 58.5 22.594 58.5 22.594C58.5 22.594 58.5 22.5941 58.5 22.5941C58.5 22.5941 58.5 22.5942 58.5 22.5942C58.5 22.5942 58.5 22.5942 58.5 22.5943C58.5 22.5943 58.5 22.5943 58.5 22.5944C58.5 22.5944 58.5 22.5944 58.5 22.5944C58.5 22.5945 58.5 22.5945 58.5 22.5945C58.5 22.5946 58.5 22.5946 58.5 22.5946C58.5 22.5947 58.5 22.5947 58.5 22.5947C58.5 22.5947 58.5 22.5948 58.5 22.5948C58.5 22.5948 58.5 22.5949 58.5 22.5949C58.5 22.5949 58.5 22.5949 58.5 22.595C58.5 22.595 58.5 22.595 58.5 22.5951C58.5 22.5951 58.5 22.5951 58.5 22.5951C58.5 22.5952 58.5 22.5952 58.5 22.5952C58.5 22.5953 58.5 22.5953 58.5 22.5953C58.5 22.5954 58.5 22.5954 58.5 22.5954C58.5 22.5954 58.5 22.5955 58.5 22.5955C58.5 22.5955 58.5 22.5956 58.5 22.5956C58.5 22.5956 58.5 22.5957 58.5 22.5957C58.5 22.5957 58.5 22.5957 58.5 22.5958C58.5 22.5958 58.5 22.5958 58.5 22.5959C58.5 22.5959 58.5 22.5959 58.5 22.596C58.5 22.596 58.5 22.596 58.5 22.596C58.5 22.5961 58.5 22.5961 58.5 22.5961C58.5 22.5962 58.5 22.5962 58.5 22.5962C58.5 22.5963 58.5 22.5963 58.5 22.5963C58.5 22.5963 58.5 22.5964 58.5 22.5964C58.5 22.5964 58.5 22.5965 58.5 22.5965C58.5 22.5965 58.5 22.5966 58.5 22.5966C58.5 22.5966 58.5 22.5966 58.5 22.5967C58.5 22.5967 58.5 22.5967 58.5 22.5968C58.5 22.5968 58.5 22.5968 58.5 22.5969C58.5 22.5969 58.5 22.5969 58.5 22.5969C58.5 22.597 58.5 22.597 58.5 22.597C58.5 22.5971 58.5 22.5971 58.5 22.5971C58.5 22.5972 58.5 22.5972 58.5 22.5972C58.5 22.5973 58.5 22.5973 58.5 22.5973C58.5 22.5973 58.5 22.5974 58.5 22.5974C58.5 22.5974 58.5 22.5975 58.5 22.5975C58.5 22.5975 58.5 22.5976 58.5 22.5976C58.5 22.5976 58.5 22.5977 58.5 22.5977C58.5 22.5977 58.5 22.5977 58.5 22.5978C58.5 22.5978 58.5 22.5978 58.5 22.5979C58.5 22.5979 58.5 22.5979 58.5 22.598C58.5 22.598 58.5 22.598 58.5 22.5981C58.5 22.5981 58.5 22.5981 58.5 22.5982C58.5 22.5982 58.5 22.5982 58.5 22.5982C58.5 22.5983 58.5 22.5983 58.5 22.5983C58.5 22.5984 58.5 22.5984 58.5 22.5984C58.5 22.5985 58.5 22.5985 58.5 22.5985C58.5 22.5986 58.5 22.5986 58.5 22.5986C58.5 22.5986 58.5 22.5987 58.5 22.5987C58.5 22.5987 58.5 22.5988 58.5 22.5988C58.5 22.5988 58.5 22.5989 58.5 22.5989C58.5 22.5989 58.5 22.599 58.5 22.599C58.5 22.599 58.5 22.5991 58.5 22.5991C58.5 22.5991 58.5 22.5992 58.5 22.5992C58.5 22.5992 58.5 22.5993 58.5 22.5993C58.5 22.5993 58.5 22.5993 58.5 22.5994C58.5 22.5994 58.5 22.5994 58.5 22.5995C58.5 22.5995 58.5 22.5995 58.5 22.5996C58.5 22.5996 58.5 22.5996 58.5 22.5997C58.5 22.5997 58.5 22.5997 58.5 22.5998C58.5 22.5998 58.5 22.5998 58.5 22.5999C58.5 22.5999 58.5 22.5999 58.5 22.6C58.5 22.6 58.5 22.6 58.5 22.6C58.5 22.6001 58.5 22.6001 58.5 22.6001C58.5 22.6002 58.5 22.6002 58.5 22.6002C58.5 22.6003 58.5 22.6003 58.5 22.6003C58.5 22.6004 58.5 22.6004 58.5 22.6004C58.5 22.6005 58.5 22.6005 58.5 22.6005C58.5 22.6006 58.5 22.6006 58.5 22.6006C58.5 22.6007 58.5 22.6007 58.5 22.6007C58.5 22.6008 58.5 22.6008 58.5 22.6008C58.5 22.6009 58.5 22.6009 58.5 22.6009C58.5 22.601 58.5 22.601 58.5 22.601C58.5 22.6011 58.5 22.6011 58.5 22.6011C58.5 22.6011 58.5 22.6012 58.5 22.6012C58.5 22.6012 58.5 22.6013 58.5 22.6013C58.5 22.6013 58.5 22.6014 58.5 22.6014C58.5 22.6014 58.5 22.6015 58.5 22.6015C58.5 22.6015 58.5 22.6016 58.5 22.6016C58.5 22.6016 58.5 22.6017 58.5 22.6017C58.5 22.6017 58.5 22.6018 58.5 22.6018C58.5 22.6018 58.5 22.6019 58.5 22.6019C58.5 22.6019 58.5 22.602 58.5 22.602C58.5 22.602 58.5 22.6021 58.5 22.6021C58.5 22.6021 58.5 22.6022 58.5 22.6022C58.5 22.6022 58.5 22.6023 58.5 22.6023C58.5 22.6023 58.5 22.6024 58.5 22.6024C58.5 22.6024 58.5 22.6025 58.5 22.6025C58.5 22.6025 58.5 22.6026 58.5 22.6026C58.5 22.6026 58.5 22.6027 58.5 22.6027C58.5 22.6027 58.5 22.6028 58.5 22.6028C58.5 22.6028 58.5 22.6029 58.5 22.6029C58.5 22.6029 58.5 22.603 58.5 22.603C58.5 22.603 58.5 22.6031 58.5 22.6031C58.5 22.6031 58.5 22.6032 58.5 22.6032C58.5 22.6032 58.5 22.6033 58.5 22.6033C58.5 22.6033 58.5 22.6034 58.5 22.6034C58.5 22.6034 58.5 22.6035 58.5 22.6035C58.5 22.6035 58.5 22.6036 58.5 22.6036C58.5 22.6036 58.5 22.6037 58.5 22.6037C58.5 22.6037 58.5 22.6038 58.5 22.6038C58.5 22.6038 58.5 22.6039 58.5 22.6039C58.5 22.6039 58.5 22.604 58.5 22.604C58.5 22.604 58.5 22.6041 58.5 22.6041C58.5 22.6041 58.5 22.6042 58.5 22.6042C58.5 22.6042 58.5 22.6043 58.5 22.6043C58.5 22.6044 58.5 22.6044 58.5 22.6044C58.5 22.6045 58.5 22.6045 58.5 22.6045C58.5 22.6046 58.5 22.6046 58.5 22.6046C58.5 22.6047 58.5 22.6047 58.5 22.6047C58.5 22.6048 58.5 22.6048 58.5 22.6048C58.5 22.6049 58.5 22.6049 58.5 22.6049C58.5 22.605 58.5 22.605 58.5 22.605C58.5 22.6051 58.5 22.6051 58.5 22.6051H62.5Z" fill="#5E6642" mask="url(#path-3-inside-2_1316_5838)"/>
</g>
</g>
</svg>
