<svg width="180" height="181" viewBox="0 0 180 181" fill="none" xmlns="http://www.w3.org/2000/svg">
<path d="M140.617 112.777C140.617 143.845 121.06 163.402 89.9922 163.402C58.9246 163.402 39.3672 143.845 39.3672 112.777C39.3672 79.4387 75.659 34.4317 86.7894 21.4133C87.1855 20.9508 87.677 20.5795 88.2301 20.3249C88.7833 20.0703 89.385 19.9385 89.9939 19.9385C90.6029 19.9385 91.2046 20.0703 91.7577 20.3249C92.3109 20.5795 92.8024 20.9508 93.1984 21.4133C104.325 34.4317 140.617 79.4387 140.617 112.777Z" stroke="currentColor" stroke-width="9" stroke-miterlimit="10"/>
<path d="M120.933 115.527C120.933 122.24 118.266 128.678 113.519 133.425C108.772 138.173 102.333 140.839 95.6201 140.839" stroke="currentColor" stroke-width="9" stroke-linecap="round" stroke-linejoin="round"/>
</svg>
