<svg width="221" height="120" viewBox="0 0 221 120" fill="none" xmlns="http://www.w3.org/2000/svg">
<path d="M64.6465 63.8066C64.6465 63.8066 62.8428 60.7231 61.4723 58.4961C60.1019 56.2691 56.716 55.9668 56.716 55.9668C56.716 55.9668 56.5044 56.2691 56.847 59.5239C57.1896 62.7788 61.6436 68.9559 61.6436 68.9559" stroke="#193048" stroke-width="1.125" stroke-miterlimit="10"/>
<path d="M58.2364 82.0239C57.5008 87.3042 55.3444 97.4819 54.6994 101.341C53.9235 105.967 52.8957 107.639 55.9893 110.209C59.0728 112.779 61.592 112.345 63.8997 111.066C65.0686 110.421 64.4841 108.415 65.8848 105.967C67.2553 103.568 70.6008 100.737 72.5154 98.5803C76.3748 94.2069 79.4987 94.5797 81.0405 89.1785C82.5822 83.7773 81.3025 77.7412 83.9325 70.9897C89.102 57.6882 97.9092 53.8287 102.535 50.191C107.16 46.5532 111.795 45.2734 111.795 45.2734" stroke="#193048" stroke-width="1.125" stroke-miterlimit="10"/>
<path d="M63.0117 66.5456L67.0828 59.6934" stroke="#193048" stroke-width="1.125" stroke-miterlimit="10"/>
<path d="M75.8702 71.684C75.8702 71.684 75.8702 68.2578 74.1571 63.7938C72.444 59.3398 66.9521 58.1406 66.9521 58.1406C66.9521 58.1406 67.2947 63.1085 67.98 67.23C68.6652 71.3414 71.4061 72.5405 71.4061 72.5405" stroke="#193048" stroke-width="1.125" stroke-miterlimit="10"/>
<path d="M74.1592 63.8075C74.1592 63.8075 76.2149 65.3492 75.8723 66.5484C75.5297 67.7475 78.0993 72.5441 78.0993 72.5441C78.0993 72.5441 77.7567 71.8589 78.0993 71.1737C78.4419 70.4885 78.0993 68.4328 78.0993 68.4328L79.2984 62.2657V68.2615C79.2984 69.118 79.9837 69.9745 79.9837 69.9745C79.9837 69.9745 80.4976 67.2336 80.8402 66.5484C81.1828 65.8631 80.8402 65.3492 80.8402 65.3492C80.8402 65.3492 81.3541 63.2935 82.2006 61.7518C83.047 60.21 82.382 59.3535 82.2006 57.2978C82.0192 55.2421 83.5811 58.1543 83.5811 58.1543L84.5183 59.7062C84.5183 59.7062 85.1229 57.4691 84.5183 56.4412C83.9137 55.4134 84.609 49.2363 84.5183 50.2137C84.4679 50.6974 85.0523 51.6144 85.6469 52.4105C86.2414 53.2066 86.8359 53.8716 86.8359 53.8716V51.1307C86.8359 50.1029 86.322 48.3898 85.6368 45.3063C84.9516 42.2227 84.2663 43.5932 82.8354 39.9958C81.868 37.5672 82.2106 37.013 82.5331 36.9021C82.7044 36.8417 82.8153 36.6704 82.7649 36.4991C82.6339 36.0456 82.3014 35.4108 81.4448 35.6627C80.155 36.0456 79.2379 36.096 78.4419 37.5672" stroke="#193048" stroke-width="1.125" stroke-miterlimit="10"/>
<path d="M129.016 8.26042C124.562 6.88996 120.784 2.26467 118.385 1.22675C115.987 0.198903 109.296 2.93982 107.069 3.96767C104.842 4.99551 99.1787 9.27819 91.9838 16.8258C88.2049 20.786 82.6828 30.1878 78.4303 37.5439C78.1079 38.1082 75.3468 40.8592 75.0546 41.4034C71.8199 47.3689 72.485 49.1021 72.2633 50.2005C71.7494 52.7197 68.3232 58.1411 68.3232 58.1411" stroke="#193048" stroke-width="1.125" stroke-miterlimit="10"/>
<path d="M93.71 56.7344C93.71 56.7344 93.8813 68.605 92.6822 74.7821C91.483 80.9592 90.7978 90.2098 89.9413 95.5304C89.0847 100.841 88.339 105.305 88.1677 108.389C87.9964 111.472 86.8477 114.384 86.8477 114.384C86.8477 114.384 87.3616 115.412 88.2181 115.412L89.6793 112.107V116.017C92.2489 116.279 93.7201 114.556 93.7201 114.556C93.7201 114.556 92.8737 111.986 93.7201 110.273C94.5666 108.56 95.1712 108.389 94.1433 105.386C93.3069 102.957 95.9471 91.5803 97.4889 85.9272C99.0306 80.274 102.457 71.0133 104.351 66.5594C106.236 62.1054 107.263 60.7349 107.263 60.7349" stroke="#193048" stroke-width="1.125" stroke-miterlimit="10"/>
<path d="M100.289 54.8887C100.289 54.8887 106.557 60.0279 109.127 62.265C111.696 64.502 119.405 65.3485 122.317 65.3485" stroke="#193048" stroke-width="1.125" stroke-miterlimit="10"/>
<path d="M118.726 52.1442C118.726 52.1442 120.781 55.5704 121.638 59.0066C122.494 62.4327 122.837 77.5179 122.837 83.0098C122.837 88.5017 124.207 92.0991 125.235 93.9835C126.263 95.8679 126.606 105.129 126.263 107.527C125.92 109.925 126.263 112.102 126.263 112.102L125.235 115.407L125.92 117.291L127.12 114.55L127.694 117.926C128.893 117.926 133.125 116.788 133.125 115.407C133.125 114.026 132.783 112.666 132.783 112.666L132.954 112.102C133.125 111.537 132.612 109.411 131.241 106.328C129.871 103.244 129.871 99.294 129.871 96.5531C129.871 93.8122 130.385 93.9835 130.778 91.9278C131.171 89.8721 131.412 87.4738 130.898 84.2089C130.385 80.944 131.584 65.5263 132.098 60.1251C132.612 54.7239 133.639 55.0665 135.524 50.2095C137.408 45.3524 137.751 29.582 137.751 29.582" stroke="#193048" stroke-width="1.125" stroke-miterlimit="10"/>
<path d="M160.395 33.6232C160.395 33.6232 160.224 23.8486 158.854 18.0242C157.483 12.1997 157.312 8.24959 143.94 4.11806C130.568 -0.0235487 122.335 4.11806 122.335 4.11806" stroke="#193048" stroke-width="1.125" stroke-miterlimit="10"/>
<path d="M131.657 65.3472C144.918 66.7177 160.054 57.6283 161.596 43.7423C163.137 29.8564 147.71 15.2852 147.71 15.2852" stroke="#193048" stroke-width="1.125" stroke-miterlimit="10"/>
<path d="M149.019 61.5167C149.019 61.5167 151.004 68.3085 149.936 73.7501C148.706 79.9776 151.477 82.1542 152.848 87.9787C154.218 93.8031 155.548 98.9524 154.863 102.892C154.178 106.833 155.931 107.346 155.931 107.346C155.931 107.346 155.76 108.959 155.931 112.093C155.931 112.093 157.685 113.433 160.133 112.788V110.47L161.695 112.959C161.695 112.959 161.332 112.143 161.695 110.853C162.058 109.563 160.516 106.994 160.516 106.994C160.516 106.994 161.161 102.489 160.254 100.565C159.357 98.64 156.264 89.5103 156.657 84.492C157.04 79.4737 157.927 79.1916 157.453 75.4934C156.788 70.3542 157.372 70.465 158.33 65.4769C159.74 58.1409 158.178 53.0723 158.178 53.0723" stroke="#193048" stroke-width="1.125" stroke-miterlimit="10"/>
<path d="M132.929 111.177L133.906 108.285L134.934 112.094C136.909 112.094 138.793 111.117 138.793 111.117C138.793 109.313 138.179 107.519 138.179 107.519C138.179 107.519 138.924 107.006 138.924 105.333C138.924 103.66 138.542 102.38 137.766 100.708C136.99 99.0347 136.607 84.8968 136.869 83.738C137.131 82.5792 137.766 79.3646 137.766 73.7518C137.766 68.139 139.569 65.3477 139.569 65.3477" stroke="#193048" stroke-width="1.125" stroke-miterlimit="10"/>
<path d="M132.01 108.166L132.917 106.231C132.917 106.231 132.705 105.586 132.917 103.279C133.128 100.971 133.118 94.5823 132.01 89.3927L130.901 84.2031" stroke="#193048" stroke-width="1.125" stroke-miterlimit="10"/>
<path d="M66.6982 84.6354L66.9602 84.2928C67.2222 83.9502 67.5648 83.0937 67.5648 83.0937C67.5648 83.0937 66.1843 82.9828 65.4184 83.0937C64.2596 83.265 64.5619 81.8945 64.5619 81.8945" stroke="#193048" stroke-width="1.125" stroke-miterlimit="10"/>
<path d="M65.6719 83.0898C65.6719 83.0898 66.3974 84.0371 66.9617 83.9867" stroke="#193048" stroke-width="1.125" stroke-miterlimit="10"/>
<path d="M58.5686 110.2C58.5686 110.2 59.536 111.46 59.9391 110.2C60.3421 108.94 58.8508 105.282 57.9942 105.172C57.1377 105.061 57.1377 107.57 57.1377 107.57" stroke="#193048" stroke-width="1.125" stroke-miterlimit="10"/>
<path d="M59.4743 110.751C59.8774 109.985 59.0108 107.748 58.5574 106.881C58.1039 106.014 57.2373 106.287 57.2373 106.287" stroke="#193048" stroke-width="1.125" stroke-miterlimit="10"/>
<path d="M61.9045 67.9141L60.6751 71.2999C60.6751 71.2999 60.5643 71.5821 59.2543 73.0634C57.9443 74.5447 57.9644 76.2376 57.7931 78.6963C57.6218 81.1551 58.821 83.5433 58.821 83.5433L59.2543 81.8907C59.2543 81.8907 59.9395 80.349 60.2015 78.6963C60.4635 77.0437 60.9774 77.3461 62.5192 75.1191C64.061 72.8921 63.547 74.6051 63.6377 74.857C63.7284 75.109 64.585 77.0034 65.0687 78.6863C65.5624 80.3792 67.4972 80.6815 67.5778 80.4296C67.6584 80.1777 67.3158 79.0591 66.9732 76.8321C66.6305 74.6051 66.9732 73.6579 66.9732 73.3153C66.9732 72.9727 67.5778 73.9199 68.001 75.3911C68.4343 76.8724 69.1195 79.4824 69.1195 79.4824C69.1195 79.4824 69.6335 77.5073 69.8552 77.084C70.0769 76.6608 69.7141 76.1368 69.8552 74.3431C69.9963 72.5394 69.8552 71.2999 69.8552 71.2999" stroke="#193048" stroke-width="1.125" stroke-miterlimit="10"/>
<path d="M1 118.556L21.3956 119.211C21.3956 119.211 14.4426 114.002 17.6873 114.002C20.9321 114.002 24.6404 116.279 24.6404 116.279C24.6404 116.279 17.2238 107.482 20.005 108.137C22.7862 108.792 28.8122 113.669 28.8122 113.669C28.8122 113.669 23.7133 95.4298 29.2758 98.0398C34.8382 100.65 36.6924 106.504 37.1559 107.482C37.6194 108.459 40.4007 103.25 41.7913 105.849C43.1819 108.459 44.109 114.646 44.109 114.646C44.109 114.646 50.135 105.527 51.5256 108.782C52.9162 112.037 51.5256 117.246 51.5256 117.246C51.5256 117.246 58.4786 111.714 59.8692 113.991C61.2598 116.269 60.3328 118.224 60.3328 118.224H160.9C160.9 118.224 167.853 106.504 170.635 109.427C173.416 112.359 172.952 115.291 172.952 115.291C172.952 115.291 180.832 104.217 181.296 108.782C181.759 113.336 180.369 116.269 180.369 116.269C180.369 116.269 190.103 112.359 189.64 113.991C189.176 115.624 186.858 118.224 186.858 118.224C186.858 118.224 196.129 115.291 195.666 116.924L195.202 118.556H220.404" stroke="#193048" stroke-width="0.75" stroke-miterlimit="10"/>
</svg>
