<svg width="183" height="105" viewBox="0 0 183 105" fill="none" xmlns="http://www.w3.org/2000/svg">
<path d="M10.6561 15.5575C10.6561 15.196 10.3592 14.8475 9.94615 14.783C9.46851 14.6668 8.99086 14.9637 8.87468 15.4929C5.95724 28.9958 9.1716 41.6595 11.8438 52.1287C14.8774 63.9663 17.1365 72.7702 8.21634 75.92C7.91943 75.9846 7.68704 76.2169 7.6225 76.5138C6.07343 82.2196 5.54414 86.2085 5.72487 90.1974C5.90559 94.2379 6.7318 98.2913 7.91942 104.062C8.0356 104.539 8.44868 104.836 8.87468 104.836H19.8215C20.2992 104.836 20.6606 104.475 20.7122 103.997C21.0092 101.08 19.4601 99.1175 17.8593 97.0391C15.6648 94.1217 13.1605 90.9074 16.0779 84.1301C17.0332 81.9872 20.4799 76.8107 24.1073 71.2857C23.1004 80.322 24.4688 91.8626 31.4784 104.359C31.6591 104.655 31.956 104.836 32.3174 104.836H43.6773C44.155 104.836 44.5681 104.423 44.5681 103.945V103.829C44.2066 100.383 42.0638 98.6528 39.753 96.8713C37.0163 94.6768 34.0472 92.3532 34.4603 86.1697C34.8218 81.2385 40.1661 73.3769 45.291 66.2383C45.4717 66.9482 45.7041 67.6712 45.9493 68.3166C46.6593 69.9173 47.6146 71.1695 48.7506 72.1764C50.5321 73.7255 52.8557 74.5 55.2955 74.6808C57.6707 74.7969 60.1751 74.3193 62.4342 73.3124C64.7578 72.3571 66.9007 70.8726 68.4369 69.0912C68.7338 68.7297 69.0307 68.3812 69.2759 68.0197C69.5728 68.0843 69.8698 68.0842 70.1667 68.1359C80.5197 68.975 89.9691 67.7744 96.3332 65.5154C96.7463 65.3992 97.1077 65.2184 97.4692 65.1023C96.6947 76.2298 97.8823 93.4762 101.394 104.178C101.51 104.591 101.923 104.836 102.349 104.772L109.901 104.655C110.378 104.655 110.791 104.242 110.791 103.765C110.791 103.649 110.727 103.532 110.727 103.468C106.738 93.1794 108.648 83.4847 110.959 76.0491C112.147 81.5225 113.631 87.5898 114.948 92.7663C116.136 97.5813 117.143 101.635 117.452 103.532C117.517 103.945 117.93 104.307 118.343 104.307H126.553C127.031 104.307 127.444 103.894 127.444 103.352C127.444 103.235 127.444 103.119 127.379 103.055C127.082 102.099 121.971 86.6991 122.5 81.4064C122.681 80.1025 123.094 77.5982 123.687 74.6291C124.346 71.1179 125.12 66.8966 125.65 62.9723C127.134 63.4499 128.98 63.4499 131.007 63.5016C133.976 63.5661 137.487 63.6177 140.701 65.3475C141.179 65.5283 141.708 65.4121 141.954 64.9344C142.186 64.5214 142.018 63.9275 141.592 63.6823C137.965 61.7847 134.221 61.7201 131.007 61.6556C129.045 61.6556 127.199 61.591 125.895 61.0617C126.424 56.8921 126.553 53.2647 125.83 51.5994C125.301 50.2311 124.397 49.7535 123.029 50.2956C122.797 50.4118 122.551 50.528 122.319 50.7087C121.312 51.4187 120.718 52.6063 120.589 54.0392C120.473 55.3431 120.77 56.8921 121.364 58.4412C121.725 59.2803 122.203 60.1065 122.732 60.9456C123.094 61.4232 123.507 61.8363 123.92 62.1332C123.39 66.1221 122.551 70.5757 121.841 74.2677C121.312 77.3013 120.835 79.8056 120.705 81.1611C120.176 86.1569 123.971 98.5237 125.224 102.448H119.092C118.679 100.253 117.788 96.6132 116.717 92.3403C115.167 86.1569 113.27 78.6051 112.134 72.5379L112.611 71.1695C113.683 68.1359 114.509 65.6961 114.638 63.9146C114.754 61.7201 113.864 60.4679 111.372 60.3517C110.004 60.2872 109.346 61.4232 109.229 63.4499C109.165 65.5283 109.591 68.6781 110.236 72.4346C107.564 80.1671 104.401 90.9977 108.506 102.887L102.917 103.003C99.5217 92.1208 98.4503 74.926 99.3539 64.289C100.787 63.579 101.974 62.8561 102.865 62.0299C104.53 60.597 105.305 58.9963 105.06 57.2665C104.944 56.492 104.582 55.7174 103.924 54.9429C103.33 54.1038 102.672 53.6907 101.962 53.5745C100.709 53.3422 99.7024 54.3491 98.9925 56.2467C98.3986 57.7958 97.9856 60.0548 97.6887 62.727L97.6241 63.0239C97.0303 63.3208 96.3719 63.5532 95.7265 63.7985C89.5431 65.9413 80.3777 67.129 70.3345 66.3028H70.1021C70.3345 65.6444 70.4635 65.0506 70.4635 64.5214C70.399 63.863 70.2312 63.2692 69.9343 62.7916L69.8697 62.727C69.5083 62.2494 69.0952 61.9525 68.5014 61.7717C67.6623 61.5394 66.6554 61.591 65.5323 62.1848C65.0547 62.4817 64.6932 62.8948 64.5254 63.3725C64.4092 63.8501 64.3447 64.4439 64.5254 64.9732C64.7062 65.5024 65.0547 66.0446 65.5969 66.5223C66.0745 66.8837 66.6038 67.2322 67.3783 67.5292L67.0814 67.8261C65.6485 69.4913 63.8154 70.7435 61.7242 71.6342C59.6974 72.5249 57.5029 72.938 55.4246 72.8219C53.3462 72.7057 51.4357 72.0473 49.9511 70.7435C48.9959 69.969 48.2213 68.8975 47.6921 67.5937C47.2144 66.5223 46.9821 65.3346 46.853 64.147L47.7437 62.8948C51.965 57.1245 55.4762 52.3094 55.2955 50.2311C55.1793 49.1596 54.5209 48.6304 53.1009 48.7465C52.5717 48.8111 52.094 48.9273 51.5518 49.1596C49.4735 50.0504 47.6275 52.3094 46.4399 55.1107C45.3684 57.6667 44.7746 60.7003 44.9554 63.6177C39.3658 71.2857 33.1178 80.2704 32.7047 86.0407C32.1754 93.1794 35.5576 95.7999 38.6558 98.2913C40.3856 99.6597 41.9863 100.964 42.5801 102.99H32.8854C25.2691 89.1905 24.7398 76.7591 26.5858 67.6583C30.5747 61.6556 34.3183 55.8852 35.0929 53.5616C35.4543 52.4902 35.2736 51.7156 34.4345 51.4833H34.3183C33.789 51.3671 33.2469 51.4187 32.6531 51.7802H32.5885C31.5816 52.374 30.394 53.6778 29.1935 55.5883C28.0575 57.4343 26.8698 59.8741 25.9275 62.8432C25.5144 64.147 25.1529 65.5154 24.856 66.9482L23.1908 69.5042C19.2664 75.3907 15.5228 80.9803 14.4514 83.3685C11.0563 91.1656 13.9221 94.8446 16.4781 98.1751C17.6657 99.7242 18.8017 101.209 18.9825 102.99H9.64923C8.51323 97.633 7.75159 93.8248 7.6225 90.1457C7.44177 86.4538 7.98395 82.7102 9.35231 77.482C19.3439 73.6739 16.9041 64.2761 13.6897 51.664C11.3661 42.5631 8.62943 31.797 9.94615 20.3726C10.8369 23.2254 12.3214 26.4398 14.7096 28.6343C18.6339 32.1972 24.9335 33.217 34.9896 26.556C37.3132 25.0069 38.4363 25.3683 39.2108 26.6205C39.8047 27.4596 40.2823 28.7634 40.8116 30.1834C42.4768 34.4692 44.5552 39.8781 51.1646 41.5433C56.9995 42.9762 61.6338 39.465 65.9712 36.2506C67.4041 35.1146 68.8241 34.0561 70.1925 33.2816C73.7553 31.2548 77.1504 31.2032 80.9586 37.9159C84.6505 44.3962 90.4209 46.4746 95.7652 45.7646C98.205 45.4677 100.464 44.5769 102.491 43.2602C104.453 42.008 106.118 40.2266 107.254 38.2644C109.578 34.1594 109.629 28.9829 105.524 23.8709L105.408 23.7547C101.122 19.7658 99.5734 16.3837 99.8187 13.5824C99.9994 11.801 100.826 10.1873 102.142 8.819C103.575 7.3861 105.408 6.19846 107.499 5.30774C113.037 2.75176 119.815 2.09339 122.306 3.52629C122.719 3.75866 123.261 3.64248 123.558 3.22939C123.791 2.75176 123.623 2.22249 123.197 1.97722C120.344 0.24741 112.728 0.905761 106.725 3.64247C104.466 4.64937 102.388 5.9661 100.838 7.56682C99.2378 9.16754 98.1663 11.1297 97.9856 13.4017C97.7532 16.7322 99.4185 20.6566 104.117 25.0585C107.629 29.4605 107.629 33.8625 105.666 37.3737C104.711 39.1035 103.227 40.5881 101.497 41.7757C99.7154 42.9117 97.6887 43.6733 95.5458 43.9702C90.9114 44.564 85.8511 42.718 82.5851 36.9477C78.0024 28.9829 73.7812 29.1507 69.3276 31.655C67.843 32.4941 66.4101 33.6172 64.861 34.7532C60.9367 37.7223 56.5993 40.9366 51.6035 39.749C45.9493 38.3161 44.0517 33.3848 42.5672 29.525C41.9734 27.976 41.4957 26.6076 40.7857 25.6007C39.3528 23.4062 37.5198 22.6833 34.0085 25.0069C24.8431 31.0741 19.3181 30.2996 15.9875 27.266C12.5925 24.1678 11.2887 18.7073 10.7594 15.5446L10.6561 15.5575ZM33.0145 53.6778C32.24 55.4076 30.394 58.4412 28.1349 61.8879C28.974 59.745 29.8647 57.9636 30.7555 56.5307C31.53 55.2269 32.3562 54.2716 33.0145 53.6778ZM53.4108 50.4118C53.5269 51.7156 50.5579 55.9498 46.8143 61.0617C46.995 59.2158 47.4081 57.4343 48.118 55.8336C49.125 53.4583 50.5579 51.5478 52.2231 50.8378C52.5846 50.7216 52.8815 50.6054 53.23 50.6054C53.3462 50.5409 53.4108 50.3731 53.4108 50.4247V50.4118ZM68.5788 64.573C68.5788 64.9861 68.4627 65.4121 68.282 65.9414C67.572 65.709 67.0943 65.4637 66.7329 65.1668C66.5005 64.9344 66.3198 64.6892 66.2552 64.4568C66.1907 64.2761 66.1907 64.0954 66.2552 63.9792C66.2552 63.9146 66.3198 63.863 66.3714 63.863C67.0298 63.5015 67.5591 63.3854 67.9205 63.5016C68.1012 63.5661 68.2174 63.6823 68.3336 63.7985V63.863C68.4497 64.0437 68.566 64.2761 68.566 64.573H68.5788ZM101.587 60.6487C101.058 61.1263 100.4 61.6039 99.5605 62.0816C99.8574 59.9387 100.219 58.1572 100.696 56.905C101.058 55.8981 101.406 55.356 101.703 55.356C101.884 55.4205 102.116 55.6529 102.478 56.0659C102.891 56.5952 103.136 57.0729 103.188 57.5505C103.369 58.5574 102.775 59.6288 101.587 60.6487ZM112.766 63.863C112.702 65.0506 112.173 66.7159 111.463 68.7942C111.166 66.6513 110.985 64.8699 111.049 63.5661C111.114 62.6754 111.166 62.1977 111.23 62.1977C112.418 62.2623 112.831 62.7916 112.779 63.863H112.766ZM124.126 52.2707C124.656 53.5745 124.539 56.4403 124.191 59.8225C123.713 59.1641 123.352 58.4541 123.055 57.7958C122.526 56.492 122.28 55.2398 122.396 54.2329C122.461 53.3422 122.81 52.5676 123.352 52.2062C123.468 52.1416 123.584 52.09 123.649 52.0254C123.881 51.9093 124.01 52.0254 124.126 52.2578V52.2707ZM107.409 2.18377C107.887 2.29995 108.364 1.9514 108.481 1.40922C108.545 0.931584 108.184 0.453953 107.706 0.402317C104.905 -0.0107715 101.82 -0.191493 98.1276 0.28614C94.4356 0.763774 90.2143 1.77067 85.1669 3.73284C80.2357 5.63047 69.1081 4.14593 56.9091 2.54522C38.1781 0.0408691 16.9428 -2.74749 9.32649 5.57882C3.07854 12.3561 0.458008 17.8295 0.0449219 23.4191C-0.316528 29.0087 1.52948 34.6628 4.38237 41.8531C8.96506 53.4454 7.89359 63.5661 7.41595 66.7159C5.51833 65.8252 1.46492 62.4946 4.61472 49.818C4.7309 49.2887 4.43398 48.8111 3.95634 48.682C3.47871 48.5658 3.00107 48.8627 2.82034 49.3404C-1.6978 67.4259 7.93234 68.7942 7.93234 68.7942C8.40997 68.8588 8.88759 68.5619 9.00377 68.0843C9.00377 68.0197 11.805 55.6529 6.08632 41.1948C3.28506 34.1723 1.50365 28.7634 1.8651 23.5869C2.22655 18.3588 4.71799 13.2339 10.6691 6.75355C17.627 -0.862768 38.3847 1.93849 56.6509 4.31374C69.0823 5.97901 80.3777 7.46355 85.7994 5.44974C90.7307 3.55212 94.8358 2.53231 98.347 2.11922C101.794 1.64158 104.776 1.82231 107.383 2.18377H107.409Z" fill="#193048"/>
<path d="M141.515 63.6655C141.102 63.4331 140.509 63.6009 140.328 64.0785C140.095 64.5562 140.263 65.0855 140.741 65.3307C141.993 65.9245 142.768 66.8153 143.297 68.0674C143.891 69.4358 144.252 71.398 144.485 74.0185C144.898 77.6459 149.777 81.8671 153.947 85.4429C156.619 87.702 159.007 89.7287 159.304 90.7356C160.311 94.1307 162.867 95.9122 165.552 96.3253C166.688 96.506 167.811 96.506 168.818 96.2607C169.889 95.9638 170.896 95.5507 171.735 94.8923C173.581 93.4594 174.705 91.1487 174.059 88.1151C173.698 86.6306 173.104 85.5591 172.278 84.8491C172.342 84.3199 172.213 83.6615 171.981 83.0032C171.142 80.6795 172.342 78.1881 173.53 75.6837C174.601 73.3601 175.673 71.1011 175.26 68.842C174.782 66.6474 173.891 62.9555 172.045 60.038C171.865 59.8057 171.748 59.6249 171.568 59.3797C174.537 60.8642 180.01 62.9426 182.747 59.4958C183.044 59.0828 182.979 58.489 182.566 58.192C182.385 58.0113 182.088 57.9597 181.856 58.0113C181.559 58.0759 176.977 58.6697 174.653 54.3193C173.401 51.9957 171.503 50.5757 169.593 49.8012C166.92 48.6652 164.003 48.7943 162.751 49.4397C162.157 49.4397 160.969 48.6652 159.717 47.4776C158.413 46.2254 157.045 44.5601 156.206 42.9594C155.728 42.0041 155.431 41.178 155.431 40.4034C155.367 39.5643 154.424 36.4791 152.63 33.0324C151.494 30.7733 150.01 28.269 148.164 26.0744C147.802 25.713 147.273 25.6613 146.86 25.9582C146.498 26.3197 146.447 26.849 146.744 27.262C148.473 29.3404 149.958 31.7286 151.029 33.8586C152.695 37.0729 153.585 39.8096 153.585 40.4551C153.65 41.5265 153.998 42.6496 154.592 43.7856C155.548 45.567 157.032 47.413 158.452 48.8459C160.053 50.3305 161.718 51.2857 162.79 51.2212C163.086 51.2212 163.319 51.1566 163.564 51.0404C164.455 50.5628 166.662 50.5628 168.857 51.4535C170.457 52.1119 171.955 53.2995 172.962 55.1971C174.446 57.9339 176.705 59.0569 178.551 59.5346C175.285 59.6508 171 56.9786 170.587 56.6817C170.29 56.501 169.928 56.501 169.58 56.6171L169.102 56.914C167.372 55.7264 165.242 55.2488 162.506 55.9588C159.11 56.7979 156.968 58.334 155.728 60.0638C153.947 62.4391 153.947 65.1758 154.424 67.2671C154.541 67.7447 155.018 68.0416 155.496 67.9254C160.259 67.1509 162.932 64.6594 165.604 62.1551C166.675 61.1482 167.747 60.0768 168.999 59.2377C169.528 59.7153 170.07 60.3737 170.483 61.0191C172.149 63.6397 172.988 67.0864 173.401 69.1647C173.762 70.83 172.807 72.8567 171.852 74.8705C170.548 77.6717 169.179 80.5763 170.251 83.6099L170.315 83.6744C169.605 83.4937 168.831 83.4421 168.056 83.4937C166.804 83.5583 165.552 83.9068 164.494 84.3844C162.531 85.2752 160.982 86.5789 160.75 87.418V87.4826C160.569 88.0119 160.866 88.4379 161.524 88.6186H161.589C162.067 88.7993 163.319 88.8509 164.687 88.8509C166.12 88.7864 167.785 88.554 169.205 88.0764C170.161 87.7149 170.935 87.2373 171.529 86.6435C171.826 87.1211 172.123 87.7149 172.303 88.4895C172.781 90.684 172.007 92.3493 170.638 93.3691C170.044 93.8984 169.27 94.2082 168.444 94.376C167.605 94.6083 166.778 94.6083 165.888 94.4922C163.861 94.1307 161.899 92.7624 161.124 90.1548C160.647 88.6057 158.091 86.4628 155.173 83.9713C151.313 80.6408 146.666 76.7165 146.369 73.799C146.072 70.9978 145.711 68.9194 145.065 67.3187C144.291 65.5889 143.284 64.4658 141.554 63.6267L141.515 63.6655ZM168.16 85.3139C168.818 85.3139 169.412 85.3784 169.941 85.5462C169.58 85.9077 169.102 86.14 168.508 86.3853C167.321 86.7984 165.836 86.9791 164.584 87.0437H163.448C163.926 86.7468 164.519 86.4499 165.178 86.153C166.133 85.7399 167.14 85.443 168.147 85.3139H168.16ZM162.983 57.7144C164.713 57.3013 166.197 57.482 167.45 58.1275C166.314 58.9666 165.307 59.9089 164.352 60.7997C162.028 62.9942 159.769 65.1371 156.025 65.9762C155.844 64.4916 156.09 62.7102 157.213 61.1611C158.22 59.7282 160.014 58.489 162.983 57.7144ZM146.744 27.262C147.157 27.6235 147.699 27.559 148.047 27.1975C148.344 26.7844 148.344 26.1906 147.931 25.8937C146.679 24.8223 128.671 5.79438 127.367 4.83911C125.999 3.88384 124.63 2.94148 123.198 1.98621C122.784 1.6893 122.191 1.80549 121.894 2.21858C121.661 2.69621 121.778 3.22548 122.191 3.52238C123.559 4.41311 124.927 5.36837 126.296 6.32364C127.6 7.2789 145.556 26.2422 146.744 27.262Z" fill="#193048"/>
</svg>
