<svg width="248" height="47" viewBox="0 0 248 47" fill="none" xmlns="http://www.w3.org/2000/svg">
<path d="M11.3333 6C11.3333 8.94552 8.94553 11.3333 6 11.3333C3.05447 11.3333 0.666672 8.94552 0.666672 6C0.666672 3.05448 3.05447 0.666667 6 0.666667C8.94553 0.666667 11.3333 3.05448 11.3333 6ZM199 27.5L199.037 28.4993L199.013 28.5002L198.989 28.4999L199 27.5ZM247.449 45.1838C247.623 45.7077 247.34 46.274 246.816 46.4487C246.292 46.6233 245.726 46.3402 245.551 45.8162L247.449 45.1838ZM6.94221 5.66499C9.40895 12.6027 23.2165 27.2949 58.9778 26.5002L59.0222 28.4998C22.7835 29.3051 7.92438 14.3973 5.05779 6.33501L6.94221 5.66499ZM58.9778 26.5002C94.9968 25.6998 167.346 26.1667 199.011 26.5001L198.989 28.4999C167.32 28.1666 95.0032 27.7002 59.0222 28.4998L58.9778 26.5002ZM198.963 26.5007C205.868 26.2481 216.55 26.8518 226.19 29.4982C235.755 32.1241 244.677 36.8698 247.449 45.1838L245.551 45.8162C243.123 38.5302 235.128 34.0259 225.66 31.4268C216.267 28.8482 205.798 28.2519 199.037 28.4993L198.963 26.5007Z" fill="black"/>
</svg>
