<svg width="60" height="44" viewBox="0 0 60 44" fill="none" xmlns="http://www.w3.org/2000/svg">
<path d="M37.6562 0.21875H54.0625C55.5129 0.21875 56.9039 0.79492 57.9295 1.82051C58.9551 2.8461 59.5312 4.2371 59.5312 5.6875V23.1875C59.5312 24.6379 58.9551 26.0289 57.9295 27.0545C56.9039 28.0801 55.5129 28.6562 54.0625 28.6562H38.75V29.75C38.75 31.7806 39.5566 33.728 40.9925 35.1638C42.4283 36.5996 44.3757 37.4062 46.4062 37.4062C47.2765 37.4062 48.1111 37.752 48.7264 38.3673C49.3418 38.9827 49.6875 39.8173 49.6875 40.6875C49.6875 41.5577 49.3418 42.3923 48.7264 43.0077C48.1111 43.623 47.2765 43.9688 46.4062 43.9688C42.6365 43.9644 39.0225 42.465 36.3569 39.7994C33.6913 37.1338 32.1918 33.5197 32.1875 29.75V5.6875C32.1875 4.2371 32.7637 2.8461 33.7893 1.82051C34.8148 0.79492 36.2058 0.21875 37.6562 0.21875ZM38.75 22.0938H52.9688V6.78125H38.75V22.0938ZM5.9375 0.21875H22.3438C23.7942 0.21875 25.1852 0.79492 26.2107 1.82051C27.2363 2.8461 27.8125 4.2371 27.8125 5.6875V23.1875C27.8125 24.6379 27.2363 26.0289 26.2107 27.0545C25.1852 28.0801 23.7942 28.6562 22.3438 28.6562H7.03125V29.75C7.03125 31.7806 7.83789 33.728 9.27371 35.1638C10.7095 36.5996 12.6569 37.4062 14.6875 37.4062C15.5577 37.4062 16.3923 37.752 17.0077 38.3673C17.623 38.9827 17.9688 39.8173 17.9688 40.6875C17.9688 41.5577 17.623 42.3923 17.0077 43.0077C16.3923 43.623 15.5577 43.9688 14.6875 43.9688C10.9178 43.9644 7.30371 42.465 4.63812 39.7994C1.97253 37.1338 0.473091 33.5197 0.46875 29.75V5.6875C0.46875 4.2371 1.04492 2.8461 2.07051 1.82051C3.0961 0.79492 4.4871 0.21875 5.9375 0.21875ZM7.03125 22.0938H21.25V6.78125H7.03125V22.0938Z" fill="#E6CFB7"/>
</svg>
