<svg width="60" height="44" viewBox="0 0 60 44" fill="none" xmlns="http://www.w3.org/2000/svg">
<path d="M22.3438 0.21875H5.9375C4.4871 0.21875 3.0961 0.79492 2.07051 1.82051C1.04492 2.8461 0.46875 4.2371 0.46875 5.6875V23.1875C0.46875 24.6379 1.04492 26.0289 2.07051 27.0545C3.0961 28.0801 4.4871 28.6562 5.9375 28.6562H21.25V29.75C21.25 31.7806 20.4434 33.728 19.0075 35.1638C17.5717 36.5996 15.6243 37.4062 13.5938 37.4062C12.7235 37.4062 11.8889 37.752 11.2736 38.3673C10.6582 38.9827 10.3125 39.8173 10.3125 40.6875C10.3125 41.5577 10.6582 42.3923 11.2736 43.0077C11.8889 43.623 12.7235 43.9688 13.5938 43.9688C17.3635 43.9644 20.9775 42.465 23.6431 39.7994C26.3087 37.1338 27.8082 33.5197 27.8125 29.75V5.6875C27.8125 4.2371 27.2363 2.8461 26.2107 1.82051C25.1852 0.79492 23.7942 0.21875 22.3438 0.21875ZM21.25 22.0938H7.03125V6.78125H21.25V22.0938ZM54.0625 0.21875H37.6562C36.2058 0.21875 34.8148 0.79492 33.7893 1.82051C32.7637 2.8461 32.1875 4.2371 32.1875 5.6875V23.1875C32.1875 24.6379 32.7637 26.0289 33.7893 27.0545C34.8148 28.0801 36.2058 28.6562 37.6562 28.6562H52.9688V29.75C52.9688 31.7806 52.1621 33.728 50.7263 35.1638C49.2905 36.5996 47.3431 37.4062 45.3125 37.4062C44.4423 37.4062 43.6077 37.752 42.9923 38.3673C42.377 38.9827 42.0312 39.8173 42.0312 40.6875C42.0312 41.5577 42.377 42.3923 42.9923 43.0077C43.6077 43.623 44.4423 43.9688 45.3125 43.9688C49.0822 43.9644 52.6963 42.465 55.3619 39.7994C58.0275 37.1338 59.5269 33.5197 59.5312 29.75V5.6875C59.5312 4.2371 58.9551 2.8461 57.9295 1.82051C56.9039 0.79492 55.5129 0.21875 54.0625 0.21875ZM52.9688 22.0938H38.75V6.78125H52.9688V22.0938Z" fill="#E6CFB7"/>
</svg>
