<svg width="170" height="168" viewBox="0 0 170 168" fill="none" xmlns="http://www.w3.org/2000/svg">
<mask id="path-1-inside-1_594_11148" fill="white">
<path d="M29.5759 0.123476C23.0185 9.64977 19.0831 18.5179 18.0291 25.7425L26.4448 39.5087L36.508 27.7419C36.8131 20.2842 34.5779 10.6289 29.5759 0.12207V0.123476ZM161.115 1.15602C151.11 6.93219 143.752 13.241 139.692 19.3054L141.361 35.3676L155.512 29.0613C158.989 22.46 161.115 12.7875 161.115 1.15602H161.115ZM128.859 10.7466C125.29 18.1421 122.953 25.1045 121.773 31.2477L128.233 51.5279L135.187 39.4869L132.902 17.6127H132.912C131.656 15.2696 130.303 12.979 128.859 10.7466H128.859ZM4.58187 22.6565C4.53793 30.8704 5.42316 38.1611 6.99887 44.2122L21.5448 59.7351L22.6434 45.8814L11.1737 27.1172L11.1842 27.1059C9.04435 25.5342 6.84176 24.0501 4.58187 22.6565ZM51.2848 26.3592C48.3264 27.5911 45.5579 28.895 42.9901 30.2594L29.1912 46.4207L28.1035 60.2632L45.8356 46.5192C48.1953 40.9279 50.086 34.122 51.2848 26.3592ZM113.589 33.9621C105.143 54.3843 107.908 68.366 116.357 72.1066L123.795 59.2306L116.906 37.6313C115.832 36.3799 114.725 35.1563 113.588 33.9617L113.589 33.9621ZM164.927 34.0387C163.328 34.0289 161.774 34.0682 160.259 34.1372L140.877 42.7722L133.923 54.8238L155.841 50.0232C160.375 45.9908 165.013 40.6625 169.431 34.1698C167.899 34.0939 166.393 34.0475 164.927 34.0384L164.927 34.0387ZM85.4412 37.1043C77.2709 45.2739 71.7894 53.2773 69.4346 60.1862L75.2129 75.2707L87.2434 65.5148C88.8939 58.2361 88.4513 48.3389 85.4412 37.1043ZM0.769531 50.1761C1.92266 72.2437 10.4312 83.6836 19.666 83.4318L20.8416 68.5889L5.35074 52.0654C3.83994 51.3972 2.31215 50.7672 0.769531 50.1761ZM51.1203 54.1752C48.9343 54.6338 46.765 55.1688 44.6164 55.7793L27.4004 69.1169L26.236 83.7947C35.5496 86.4349 46.3313 76.5641 51.1196 54.1755L51.1203 54.1752ZM56.7664 54.7247C55.2336 62.7877 54.7801 70.1097 55.2287 76.3457L66.7205 94.2754L70.3135 80.85L62.4361 60.3057H62.4466C60.6303 58.3687 58.7356 56.5068 56.7671 54.7247H56.7664ZM150.777 57.8669L129.485 62.5139L122.125 75.258C129.396 81.6547 143.373 77.3797 157.325 59.218C155.159 58.6923 152.975 58.2416 150.777 57.8669ZM102.02 66.8423C98.8864 67.5173 95.9361 68.3048 93.1647 69.1827L76.6518 82.5526L73.0589 95.9788L92.9889 85.684C96.3263 80.613 99.4306 74.2617 102.019 66.8427L102.02 66.8423ZM156.556 75.6535C147.468 82.7987 141.071 90.0887 137.912 96.6706L141.857 112.326L154.963 104.075C157.468 97.0475 158.21 87.169 156.556 75.6535ZM113.193 78.6752C101.087 105.947 92.3125 134.595 91.0553 167.631H97.6366C98.8875 135.712 107.33 108.067 119.192 81.345L113.193 78.6749L113.193 78.6752ZM48.0223 81.1031C45.149 103.022 51.4374 115.807 60.5686 117.226L64.4252 102.856L52.1859 83.7841C50.8207 82.8557 49.4323 81.9618 48.022 81.1034L48.0223 81.1031ZM125.981 89.7276C123.502 97.5474 122.178 104.764 121.883 111.008L131.167 130.202L136.33 117.292L130.958 95.9566H130.979C129.467 93.9007 127.803 91.8222 125.981 89.728L125.981 89.7276ZM19.6442 90.2662C16.5983 116.487 16.786 142.239 23.9291 167.632H30.7634C23.4239 142.751 23.112 117.351 26.1706 91.0242L19.6449 90.2662H19.6442ZM96.8016 94.1665C94.4768 94.2227 92.2479 94.3563 90.1107 94.562L70.7635 104.57L66.9512 118.776C75.6312 123.075 88.0231 115.323 96.8009 94.1665H96.8016ZM169.476 107.152C166.287 107.449 163.266 107.874 160.413 108.416L142.428 119.742L137.264 132.629L158.27 124.785C162.187 120.147 166.024 114.211 169.476 107.152ZM114.172 114.886C108.713 136.31 113.435 149.758 122.334 152.251L127.86 138.441L117.984 118.04C116.778 116.985 115.504 115.936 114.172 114.886ZM59.4256 123.885C54.9699 138.381 51.5998 152.905 49.9883 167.632H56.6022C58.1867 153.667 61.4151 139.777 65.7094 125.806L59.4253 123.884L59.4256 123.885ZM154.348 133.256L133.957 140.88L128.486 154.547C136.591 159.855 149.816 153.631 161.049 133.662C158.821 133.449 156.585 133.313 154.348 133.256V133.256ZM120.334 159.15C119.675 161.862 119.214 164.69 119.049 167.632H125.618C125.776 165.281 126.163 162.989 126.717 160.711L120.334 159.15L120.334 159.15Z"/>
</mask>
<path d="M29.5759 0.123476C23.0185 9.64977 19.0831 18.5179 18.0291 25.7425L26.4448 39.5087L36.508 27.7419C36.8131 20.2842 34.5779 10.6289 29.5759 0.12207V0.123476ZM161.115 1.15602C151.11 6.93219 143.752 13.241 139.692 19.3054L141.361 35.3676L155.512 29.0613C158.989 22.46 161.115 12.7875 161.115 1.15602H161.115ZM128.859 10.7466C125.29 18.1421 122.953 25.1045 121.773 31.2477L128.233 51.5279L135.187 39.4869L132.902 17.6127H132.912C131.656 15.2696 130.303 12.979 128.859 10.7466H128.859ZM4.58187 22.6565C4.53793 30.8704 5.42316 38.1611 6.99887 44.2122L21.5448 59.7351L22.6434 45.8814L11.1737 27.1172L11.1842 27.1059C9.04435 25.5342 6.84176 24.0501 4.58187 22.6565ZM51.2848 26.3592C48.3264 27.5911 45.5579 28.895 42.9901 30.2594L29.1912 46.4207L28.1035 60.2632L45.8356 46.5192C48.1953 40.9279 50.086 34.122 51.2848 26.3592ZM113.589 33.9621C105.143 54.3843 107.908 68.366 116.357 72.1066L123.795 59.2306L116.906 37.6313C115.832 36.3799 114.725 35.1563 113.588 33.9617L113.589 33.9621ZM164.927 34.0387C163.328 34.0289 161.774 34.0682 160.259 34.1372L140.877 42.7722L133.923 54.8238L155.841 50.0232C160.375 45.9908 165.013 40.6625 169.431 34.1698C167.899 34.0939 166.393 34.0475 164.927 34.0384L164.927 34.0387ZM85.4412 37.1043C77.2709 45.2739 71.7894 53.2773 69.4346 60.1862L75.2129 75.2707L87.2434 65.5148C88.8939 58.2361 88.4513 48.3389 85.4412 37.1043ZM0.769531 50.1761C1.92266 72.2437 10.4312 83.6836 19.666 83.4318L20.8416 68.5889L5.35074 52.0654C3.83994 51.3972 2.31215 50.7672 0.769531 50.1761ZM51.1203 54.1752C48.9343 54.6338 46.765 55.1688 44.6164 55.7793L27.4004 69.1169L26.236 83.7947C35.5496 86.4349 46.3313 76.5641 51.1196 54.1755L51.1203 54.1752ZM56.7664 54.7247C55.2336 62.7877 54.7801 70.1097 55.2287 76.3457L66.7205 94.2754L70.3135 80.85L62.4361 60.3057H62.4466C60.6303 58.3687 58.7356 56.5068 56.7671 54.7247H56.7664ZM150.777 57.8669L129.485 62.5139L122.125 75.258C129.396 81.6547 143.373 77.3797 157.325 59.218C155.159 58.6923 152.975 58.2416 150.777 57.8669ZM102.02 66.8423C98.8864 67.5173 95.9361 68.3048 93.1647 69.1827L76.6518 82.5526L73.0589 95.9788L92.9889 85.684C96.3263 80.613 99.4306 74.2617 102.019 66.8427L102.02 66.8423ZM156.556 75.6535C147.468 82.7987 141.071 90.0887 137.912 96.6706L141.857 112.326L154.963 104.075C157.468 97.0475 158.21 87.169 156.556 75.6535ZM113.193 78.6752C101.087 105.947 92.3125 134.595 91.0553 167.631H97.6366C98.8875 135.712 107.33 108.067 119.192 81.345L113.193 78.6749L113.193 78.6752ZM48.0223 81.1031C45.149 103.022 51.4374 115.807 60.5686 117.226L64.4252 102.856L52.1859 83.7841C50.8207 82.8557 49.4323 81.9618 48.022 81.1034L48.0223 81.1031ZM125.981 89.7276C123.502 97.5474 122.178 104.764 121.883 111.008L131.167 130.202L136.33 117.292L130.958 95.9566H130.979C129.467 93.9007 127.803 91.8222 125.981 89.728L125.981 89.7276ZM19.6442 90.2662C16.5983 116.487 16.786 142.239 23.9291 167.632H30.7634C23.4239 142.751 23.112 117.351 26.1706 91.0242L19.6449 90.2662H19.6442ZM96.8016 94.1665C94.4768 94.2227 92.2479 94.3563 90.1107 94.562L70.7635 104.57L66.9512 118.776C75.6312 123.075 88.0231 115.323 96.8009 94.1665H96.8016ZM169.476 107.152C166.287 107.449 163.266 107.874 160.413 108.416L142.428 119.742L137.264 132.629L158.27 124.785C162.187 120.147 166.024 114.211 169.476 107.152ZM114.172 114.886C108.713 136.31 113.435 149.758 122.334 152.251L127.86 138.441L117.984 118.04C116.778 116.985 115.504 115.936 114.172 114.886ZM59.4256 123.885C54.9699 138.381 51.5998 152.905 49.9883 167.632H56.6022C58.1867 153.667 61.4151 139.777 65.7094 125.806L59.4253 123.884L59.4256 123.885ZM154.348 133.256L133.957 140.88L128.486 154.547C136.591 159.855 149.816 153.631 161.049 133.662C158.821 133.449 156.585 133.313 154.348 133.256V133.256ZM120.334 159.15C119.675 161.862 119.214 164.69 119.049 167.632H125.618C125.776 165.281 126.163 162.989 126.717 160.711L120.334 159.15L120.334 159.15Z" stroke="#E6CFB7" stroke-width="8.98824" mask="url(#path-1-inside-1_594_11148)"/>
</svg>
