<svg width="178" height="122" viewBox="0 0 178 122" fill="none" xmlns="http://www.w3.org/2000/svg">
<path d="M83.375 24.6924C65.5473 28.985 50.2754 43.0826 41.082 50.5076C38.4299 48.0502 35.6347 45.7516 32.7113 43.624C19.9285 34.2865 4.625 33.1299 4.625 33.1299C4.625 33.1299 8.62227 51.2459 19.1656 61.1951C8.62227 71.1479 4.625 89.2639 4.625 89.2639C4.625 89.2639 19.9285 88.1072 32.7113 78.7697C35.61 76.6605 38.3817 74.3819 41.0117 71.9459C50.1875 79.3779 65.5297 93.5107 83.375 97.8174L77.75 117.505C91.6121 115.16 105.474 105.021 111.05 100.542C156.5 98.5205 173.375 69.3408 173.375 61.2549C173.375 53.5205 156.5 23.9893 111.187 21.9748C105.706 17.5838 91.7281 7.36738 77.75 5.00488L83.375 24.6924Z" stroke="#193048" stroke-width="9" stroke-linejoin="round"/>
</svg>
