<svg width="180" height="180" viewBox="0 0 180 180" fill="none" xmlns="http://www.w3.org/2000/svg">
<path d="M140.625 112.5C140.625 143.568 121.068 163.125 90.0005 163.125C58.9329 163.125 39.3755 143.568 39.3755 112.5C39.3755 79.1613 75.6673 34.1543 86.7977 21.1359C87.1938 20.6734 87.6853 20.3021 88.2384 20.0475C88.7916 19.7929 89.3933 19.6611 90.0022 19.6611C90.6112 19.6611 91.2129 19.7929 91.766 20.0475C92.3192 20.3021 92.8107 20.6734 93.2067 21.1359C104.334 34.1543 140.625 79.1613 140.625 112.5Z" stroke="#E6CFB7" stroke-width="9" stroke-miterlimit="10"/>
<path d="M120.941 115.312C120.941 122.026 118.274 128.464 113.527 133.211C108.78 137.958 102.342 140.625 95.6284 140.625" stroke="#E6CFB7" stroke-width="9" stroke-linecap="round" stroke-linejoin="round"/>
</svg>
