<svg width="86" height="141" viewBox="0 0 86 141" fill="none" xmlns="http://www.w3.org/2000/svg">
<path d="M42.9062 91.3591C43.1962 88.7091 43.8663 86.1791 44.6763 83.7091C45.0463 82.4591 45.5662 81.2691 46.0162 80.0491C46.5262 78.8591 47.0563 77.6691 47.6163 76.4991C48.2063 75.3391 48.8262 74.1891 49.4662 73.0591C50.1762 71.9591 50.8063 70.8191 51.6163 69.7691C53.1463 67.6491 54.8663 65.5791 57.0763 64.0391L57.2263 64.1691C55.5963 66.1391 54.2462 68.3391 52.9662 70.5591C51.6862 72.7791 50.5163 75.0691 49.4062 77.3791C47.1163 81.9691 45.0263 86.6691 43.0963 91.4291L42.9062 91.3591Z" fill="#193048"/>
<path d="M47.8886 31.7956C47.4586 35.2856 46.9386 38.7356 46.6086 42.2156C46.3886 43.9456 46.1986 45.6756 46.0186 47.4156C45.8186 49.1456 45.6386 50.8756 45.4686 52.6156L44.9886 57.8156C44.8286 59.5456 44.6686 61.2756 44.5786 63.0156C44.4786 64.7456 44.2886 66.4756 44.2086 68.2056L43.9686 73.4056C43.8786 75.1356 43.8686 76.8656 43.8086 78.5956C43.7886 79.4656 43.7486 80.3256 43.7586 81.1956L43.7886 83.7856C43.8186 85.5156 43.7286 87.2556 43.8486 88.9756C43.9486 90.7056 44.0086 92.4256 44.0686 94.1656C44.1586 95.8956 44.3886 97.6056 44.5086 99.3356C44.5886 100.196 44.6186 101.066 44.7386 101.926L45.1186 104.496L45.4486 107.086C45.5086 107.516 45.5486 107.956 45.6186 108.386L45.8886 109.656C46.2686 111.356 46.5986 113.066 46.9186 114.806L46.7286 114.866C44.5386 108.196 43.2586 101.286 42.5086 94.3156C41.8486 87.3356 41.7586 80.3256 41.9786 73.3256C42.2786 66.3256 42.9686 59.3456 43.9186 52.4156C44.8886 45.4856 46.0886 38.5756 47.6986 31.7656L47.8886 31.8156V31.7956Z" fill="#193048"/>
<path d="M50.1055 73.6509C50.1055 73.6509 52.4554 54.2709 64.0154 49.7809C75.5754 45.2909 84.4155 41.4609 84.4155 41.4609C84.4155 41.4609 94.6955 71.4909 50.1055 73.6509Z" stroke="#193048" stroke-miterlimit="10"/>
<path d="M57.0328 65.6172C55.6028 66.9047 54.2253 68.2559 52.9199 69.6758C54.0385 68.0864 55.3019 66.5909 56.6584 65.1746L56.6586 65.1747L56.6671 65.1654C57.768 63.9562 59.0203 62.8949 60.306 61.8055C60.4116 61.716 60.5174 61.6263 60.6234 61.5363C62.0339 60.4321 63.5229 59.4068 65.0706 58.4799L67.3069 57.192L67.3183 57.1855L67.3292 57.1784C67.5717 57.0213 67.8224 56.863 68.0761 56.7027C68.5407 56.4093 69.0156 56.1093 69.4697 55.7983C70.4879 55.1725 71.4633 54.4571 72.4263 53.7508C72.8479 53.4416 73.2672 53.1341 73.6866 52.8366L73.6932 52.8319L73.6997 52.827C75.1886 51.6967 76.6537 50.5226 78.1043 49.3017C76.8434 50.6801 75.5012 51.9876 74.1057 53.2346C71.4805 55.5426 68.6183 57.6024 65.5891 59.3347L65.5891 59.3347L65.5862 59.3364C62.5232 61.1156 59.6656 63.2467 57.0328 65.6172Z" fill="black" stroke="#193048"/>
<path d="M53.5257 28.95C51.9757 26.36 50.4957 23.85 49.1057 21.48L45.1758 30.83C45.1758 30.83 45.1057 25.81 45.8357 19.81C46.0257 18.22 45.6957 16.39 45.1057 14.56C40.4457 6.41 37.5457 1 37.5457 1C37.5457 1 -9.91426 29.81 43.4757 70.81C43.4757 70.81 62.8457 44.51 53.5257 28.95Z" stroke="#193048" stroke-miterlimit="10"/>
<path d="M43.4933 63.4591C43.4751 63.2761 43.4558 63.0932 43.4353 62.9104C43.2242 60.3091 42.9029 57.7305 42.5324 55.1864L42.5318 55.1826C41.7488 50.0831 40.6127 45.0505 38.839 40.2616L37.5668 36.495C37.4409 36.0146 37.3056 35.5533 37.1726 35.0995C36.9313 34.2766 36.6973 33.4784 36.539 32.6361L36.5374 32.6275L36.5354 32.619C35.9506 30.0122 35.5543 27.3763 35.3562 24.7311L35.356 24.7292C35.1308 21.8708 35.1263 18.9973 35.373 16.1557C35.3738 16.3553 35.3753 16.5548 35.3776 16.7542L35.3776 16.7561C35.4179 19.3808 35.5788 22.02 35.9217 24.6325C36.5864 29.8588 37.8653 34.9963 39.7793 39.9039C41.542 44.8076 42.6035 49.9441 43.1099 55.1367C43.3747 57.9018 43.5124 60.6819 43.4933 63.4591Z" fill="black" stroke="#193048"/>
<path d="M63.9968 121.577C64.1568 120.907 64.2867 120.207 64.3367 119.497C64.8167 112.597 59.4868 106.597 52.4368 106.117C50.6268 105.997 48.8867 106.247 47.2767 106.807C47.3067 104.427 45.4468 102.407 42.9868 102.237C42.2168 102.187 41.4868 102.317 40.8268 102.607C39.4968 99.4471 36.4367 97.1271 32.7267 96.8671C27.5168 96.5071 22.9967 100.357 22.6467 105.467C22.5667 106.567 22.7068 107.627 22.9968 108.627C16.3068 108.587 10.6667 113.637 10.2067 120.267C10.1267 121.417 10.2268 122.547 10.4468 123.627C4.85678 124.727 1.17678 126.777 1.00678 129.347C0.696779 133.807 11.0568 138.157 24.1368 139.067C33.9968 139.747 42.5868 138.277 46.3568 135.597C48.9168 136.107 53.1568 138.207 56.0668 138.407C69.1468 139.307 81.5267 137.327 78.8467 130.227C77.6267 126.977 72.8968 123.367 64.0068 121.597L63.9968 121.577Z" fill="#193048" stroke="#193048" stroke-width="2" stroke-miterlimit="10"/>
</svg>
